<svg width="20" height="20" viewBox="0 0 20 20" fill="none" xmlns="http://www.w3.org/2000/svg">
<path d="M13.6301 15.9967C14.1438 16.6474 14.7603 17.3837 14.7603 17.3837C18.5445 17.2638 20 14.781 20 14.781C20 9.26727 17.5342 4.79809 17.5342 4.79809C15.0685 2.94877 12.7226 3.00014 12.7226 3.00014L12.4829 3.27411C15.3938 4.16453 16.7466 5.44877 16.7466 5.44877C14.9658 4.47275 13.2192 3.99329 11.5925 3.80494C10.3596 3.66795 9.17808 3.7022 8.13356 3.83918C8.03082 3.83918 7.94521 3.85631 7.84247 3.87343C7.24315 3.9248 5.78767 4.1474 3.95548 4.9522C3.32192 5.24329 2.94521 5.44877 2.94521 5.44877C2.94521 5.44877 4.36644 4.09603 7.44863 3.20562L7.2774 3.00014C7.2774 3.00014 4.93151 2.94877 2.46575 4.79809C2.46575 4.79809 0 9.26727 0 14.781C0 14.781 1.43836 17.2638 5.2226 17.3837C5.2226 17.3837 5.85616 16.6132 6.36986 15.9625C4.19521 15.3118 3.37329 13.9419 3.37329 13.9419C3.37329 13.9419 3.54452 14.0618 3.85274 14.233C3.86986 14.2501 3.88699 14.2673 3.92123 14.2844C3.9726 14.3186 4.02397 14.3358 4.07534 14.37C4.50342 14.6097 4.93151 14.7981 5.32534 14.9522C6.0274 15.2262 6.86644 15.5001 7.84247 15.6885C9.12671 15.9282 10.6336 16.0138 12.2774 15.7056C13.0822 15.5686 13.9041 15.3289 14.7603 14.9693C15.3596 14.7467 16.0274 14.4214 16.7295 13.959C16.7295 13.959 15.8733 15.3632 13.6301 15.9967Z" fill="#7289DA"/>
<path d="M6.88427 9.1474C5.90824 9.1474 5.1377 10.0036 5.1377 11.0481C5.1377 12.0926 5.92537 12.9488 6.88427 12.9488C7.8603 12.9488 8.63085 12.0926 8.63085 11.0481C8.64797 10.0036 7.8603 9.1474 6.88427 9.1474ZM13.1343 9.1474C12.1582 9.1474 11.3877 10.0036 11.3877 11.0481C11.3877 12.0926 12.1754 12.9488 13.1343 12.9488C14.1103 12.9488 14.8808 12.0926 14.8808 11.0481C14.8808 10.0036 14.1103 9.1474 13.1343 9.1474Z" fill="white"/>
</svg>
