<svg width="20" height="20" viewBox="0 0 20 20" fill="none" xmlns="http://www.w3.org/2000/svg">
<path d="M12.7227 3.00014C12.7358 2.99987 15.0754 2.95403 17.5342 4.79799C17.5342 4.79799 20 9.26769 20 14.7814C19.9853 14.8062 18.5255 17.2645 14.7607 17.3839C14.7607 17.3839 14.1436 16.6479 13.6299 15.9972C15.873 15.3637 16.7295 13.9591 16.7295 13.9591C16.0276 14.4214 15.36 14.7473 14.7607 14.9699C13.9046 15.3295 13.0821 15.5692 12.2773 15.7062C10.6337 16.0144 9.12693 15.9283 7.84277 15.6886C6.86675 15.5003 6.02725 15.2263 5.3252 14.9523C4.9314 14.7982 4.50322 14.61 4.0752 14.3703C4.02385 14.336 3.97225 14.3186 3.9209 14.2843C3.88694 14.2673 3.86958 14.2506 3.85254 14.2335C3.54701 14.0638 3.37601 13.9446 3.37305 13.9425C3.38468 13.9618 4.21092 15.317 6.37012 15.963C5.85643 16.6137 5.22266 17.3839 5.22266 17.3839C1.4576 17.2647 0.0145343 14.8063 0 14.7814C0 9.26769 2.46582 4.79799 2.46582 4.79799C4.92452 2.95405 7.2641 2.99987 7.27734 3.00014L7.44824 3.2062C4.36637 4.09661 2.94531 5.44936 2.94531 5.44936C2.94531 5.44936 3.3217 5.24331 3.95508 4.95229C5.78727 4.14749 7.24346 3.92456 7.84277 3.87319C7.94535 3.85608 8.03117 3.83901 8.13379 3.83901C9.17824 3.70205 10.36 3.66785 11.5928 3.80483C13.2193 3.9932 14.9654 4.47346 16.7461 5.44936C16.7369 5.44067 15.3835 4.16194 12.4824 3.27455L12.7227 3.00014ZM6.88379 9.1476C5.90806 9.14788 5.13781 10.0037 5.1377 11.048C5.1377 12.0923 5.9251 12.9491 6.88379 12.9494C7.85982 12.9494 8.63086 12.0925 8.63086 11.048C8.64786 10.0036 7.85974 9.1476 6.88379 9.1476ZM13.1338 9.1476C12.1581 9.14788 11.3878 10.0037 11.3877 11.048C11.3877 12.0923 12.1751 12.9491 13.1338 12.9494C14.1098 12.9494 14.8809 12.0925 14.8809 11.048C14.8807 10.0036 14.1097 9.1476 13.1338 9.1476Z" fill="white"/>
</svg>
