<svg width="20" height="20" viewBox="0 0 20 20" fill="none" xmlns="http://www.w3.org/2000/svg">
<path fill-rule="evenodd" clip-rule="evenodd" d="M9.7008 1.5C4.89535 1.5 1 5.40144 1 10.2156C1 14.0657 3.49278 17.3328 6.95048 18.4848C7.38552 18.5649 7.54387 18.296 7.54387 18.0646C7.54387 17.8584 7.53691 17.3094 7.53256 16.5828C5.112 17.1092 4.60126 15.4143 4.60126 15.4143C4.20624 14.4068 3.63547 14.1388 3.63547 14.1388C2.84544 13.5993 3.69551 13.6098 3.69551 13.6098C4.5682 13.6707 5.0276 14.5077 5.0276 14.5077C5.80371 15.8389 7.06446 15.4543 7.55953 15.2316C7.63958 14.6687 7.86406 14.285 8.1129 14.0674C6.18133 13.8473 4.14969 13.099 4.14969 9.75967C4.14969 8.80867 4.48902 8.02995 5.045 7.42089C4.95538 7.20076 4.65695 6.31415 5.13027 5.11518C5.13027 5.11518 5.86114 4.88026 7.52299 6.00788C8.23277 5.8143 8.96509 5.71571 9.7008 5.71467C10.4404 5.71815 11.1843 5.81473 11.8795 6.00788C13.5405 4.88026 14.2696 5.11431 14.2696 5.11431C14.7447 6.31415 14.4453 7.20076 14.3566 7.42089C14.9134 8.02995 15.251 8.80867 15.251 9.75967C15.251 13.1077 13.2159 13.8447 11.2783 14.0605C11.5906 14.3293 11.8682 14.8609 11.8682 15.6745C11.8682 16.8386 11.8577 17.7792 11.8577 18.0646C11.8577 18.2978 12.0143 18.5692 12.4563 18.484C14.1889 17.9028 15.6951 16.7919 16.7619 15.3082C17.8288 13.8245 18.4023 12.043 18.4016 10.2156C18.4016 5.40144 14.5054 1.5 9.7008 1.5Z" fill="white"/>
</svg>
