<svg width="20" height="20" viewBox="0 0 20 20" fill="none" xmlns="http://www.w3.org/2000/svg">
<g clip-path="url(#clip0_15454_1382)">
<path d="M16.8189 2H3.18111C2.86786 2 2.56744 2.12444 2.34594 2.34594C2.12444 2.56744 2 2.86786 2 3.18111V16.8189C2 17.1321 2.12444 17.4326 2.34594 17.6541C2.56744 17.8756 2.86786 18 3.18111 18H16.8189C17.1321 18 17.4326 17.8756 17.6541 17.6541C17.8756 17.4326 18 17.1321 18 16.8189V3.18111C18 2.86786 17.8756 2.56744 17.6541 2.34594C17.4326 2.12444 17.1321 2 16.8189 2ZM6.76889 15.63H4.36333V7.98889H6.76889V15.63ZM5.56444 6.93C5.29158 6.92846 5.02528 6.84613 4.79916 6.69339C4.57304 6.54065 4.39723 6.32435 4.29392 6.07179C4.19061 5.81923 4.16443 5.54173 4.21869 5.2743C4.27294 5.00688 4.4052 4.76152 4.59877 4.56919C4.79234 4.37686 5.03854 4.24618 5.30631 4.19364C5.57408 4.1411 5.85141 4.16906 6.1033 4.27399C6.35519 4.37892 6.57036 4.55611 6.72164 4.78321C6.87293 5.01031 6.95355 5.27713 6.95333 5.55C6.95591 5.73269 6.92167 5.91403 6.85267 6.0832C6.78368 6.25238 6.68132 6.40593 6.55171 6.53471C6.42211 6.66349 6.2679 6.76486 6.09828 6.83277C5.92867 6.90068 5.74711 6.93375 5.56444 6.93ZM15.6356 15.6367H13.2311V11.4622C13.2311 10.2311 12.7078 9.85111 12.0322 9.85111C11.3189 9.85111 10.6189 10.3889 10.6189 11.4933V15.6367H8.21333V7.99445H10.5267V9.05333H10.5578C10.79 8.58333 11.6033 7.78 12.8444 7.78C14.1867 7.78 15.6367 8.57667 15.6367 10.91L15.6356 15.6367Z" fill="#0A66C2"/>
</g>
<defs>
<clipPath id="clip0_15454_1382">
<rect width="16" height="16" fill="white" transform="translate(2 2)"/>
</clipPath>
</defs>
</svg>
