<svg width="20" height="20" viewBox="0 0 20 20" fill="none" xmlns="http://www.w3.org/2000/svg">
<g clip-path="url(#clip0_15460_756)">
<path d="M10.0195 2.9541C10.0209 2.9541 16.2693 2.95463 17.833 3.375C18.2577 3.49079 18.6448 3.71606 18.9551 4.02832C19.2653 4.34058 19.4885 4.72888 19.6016 5.1543C20.0193 6.72292 20.0195 9.99238 20.0195 10C20.0195 10 20.0197 13.2752 19.6016 14.8457C19.4885 15.2711 19.2653 15.6594 18.9551 15.9717C18.6448 16.2839 18.2577 16.5092 17.833 16.625C16.2693 17.0454 10.0209 17.0459 10.0195 17.0459C10.0195 17.0459 3.76993 17.0454 2.20605 16.625C1.78133 16.5092 1.39428 16.2839 1.08398 15.9717C0.773715 15.6594 0.550587 15.2711 0.4375 14.8457C0.0193182 13.2752 0.0195313 10 0.0195313 10C0.0195318 9.99238 0.0198057 6.72292 0.4375 5.1543C0.550589 4.72888 0.773721 4.34058 1.08398 4.02832C1.39428 3.71606 1.78134 3.49079 2.20605 3.375C3.76994 2.95459 10.0195 2.9541 10.0195 2.9541ZM7.97461 12.9736L13.2021 10L7.97461 7.02637V12.9736Z" fill="white"/>
</g>
<defs>
<clipPath id="clip0_15460_756">
<rect width="20" height="20" fill="white"/>
</clipPath>
</defs>
</svg>
