<svg width="85" height="71" viewBox="0 0 85 71" fill="none" xmlns="http://www.w3.org/2000/svg">
<path d="M9.64789 45.3098C4.42058 45.3304 0.159621 41.019 0.138711 35.6876C0.117801 30.3565 4.34501 26.0643 9.52059 26.0439C14.6961 26.0235 18.9571 30.3349 18.9778 35.6134C18.9985 40.8919 14.8752 45.2892 9.64789 45.3098ZM58.3286 0.0925353C51.3417 0.120054 51.0549 6.13869 40.393 6.18068C29.6278 6.22308 28.7245 0.209133 22.3585 0.234206C17.1312 0.254794 12.9559 4.59961 12.9766 9.87803C12.9973 15.1565 17.2582 19.468 22.4338 19.4476C29.4727 19.4199 29.7595 13.4013 40.4211 13.3593C51.1863 13.3169 52.0899 19.3308 58.4559 19.3058C63.6832 19.2852 67.8585 14.9404 67.8378 9.66196C67.8171 4.38354 63.5561 0.0719465 58.3286 0.0925353ZM58.5305 51.5572C51.4919 51.5849 51.2048 57.6034 40.5432 57.6454C29.778 57.6878 28.8744 51.674 22.5086 51.6991C17.2812 51.7197 13.106 56.0643 13.1267 61.3428C13.1474 66.6212 17.4084 70.9329 22.5839 70.9125C29.6226 70.8848 29.9097 64.866 40.5713 64.824C51.3365 64.7816 52.2398 70.7957 58.6059 70.7707C63.8334 70.7501 68.0084 66.4052 67.9877 61.1267C67.967 55.8482 63.758 51.5366 58.5305 51.5572ZM72.4038 25.7963C65.3133 25.8242 65.597 32.1572 56.6948 32.1923C48.4658 32.2247 48.3375 25.9437 40.419 25.9749C35.5022 25.9942 31.4831 30.6024 31.5028 35.617C31.5225 40.6313 35.6292 45.2075 40.96 45.1865C48.0505 45.1585 47.7671 38.8255 56.669 38.7904C64.8981 38.758 65.0263 45.0391 72.9449 45.0079C77.8616 44.9885 81.8807 40.3803 81.861 35.3658C81.893 30.351 77.7863 25.7751 72.4038 25.7963Z" fill="url(#paint0_linear_2817_14668)"/>
<defs>
<linearGradient id="paint0_linear_2817_14668" x1="2.9228e-06" y1="0.000123021" x2="82.4425" y2="70.9237" gradientUnits="userSpaceOnUse">
<stop stop-color="#7CDEE9"/>
<stop offset="1" stop-color="#53BAF4"/>
</linearGradient>
</defs>
</svg>
