<svg width="421" height="60" viewBox="0 0 421 60" fill="none" xmlns="http://www.w3.org/2000/svg">
<path d="M8.236 38.2896C3.77366 38.307 0.136262 34.6636 0.118412 30.1582C0.100562 25.653 3.70916 22.0258 8.12733 22.0086C12.5455 21.9914 16.1829 25.6348 16.2006 30.0955C16.2182 34.5562 12.6984 38.2722 8.236 38.2896ZM49.7927 0.0778343C43.8283 0.101089 43.5834 5.18726 34.4818 5.22274C25.292 5.25857 24.5209 0.176367 19.0865 0.197556C14.6242 0.214954 11.0599 3.88663 11.0776 8.34727C11.0953 12.8079 14.7326 16.4515 19.1508 16.4343C25.1596 16.4108 25.4045 11.3247 34.5058 11.2892C43.6956 11.2534 44.467 16.3355 49.9014 16.3144C54.3637 16.297 57.9279 12.6253 57.9103 8.16467C57.8926 3.70404 54.2552 0.0604353 49.7927 0.0778343ZM49.9651 43.5691C43.9565 43.5925 43.7114 48.6786 34.61 48.7141C25.4202 48.7499 24.6489 43.6678 19.2146 43.689C14.7523 43.7064 11.1881 47.3779 11.2057 51.8386C11.2234 56.2993 14.8608 59.943 19.279 59.9257C25.2876 59.9023 25.5327 54.816 34.6341 54.7805C43.8238 54.7447 44.595 59.827 50.0294 59.8058C54.4919 59.7884 58.0559 56.1167 58.0383 51.656C58.0206 47.1953 54.4276 43.5517 49.9651 43.5691ZM61.8082 21.7993C55.7553 21.8229 55.9974 27.1748 48.398 27.2044C41.3732 27.2318 41.2638 21.9239 34.504 21.9502C30.3067 21.9666 26.8759 25.8608 26.8926 30.0985C26.9094 34.3359 30.4152 38.2031 34.9658 38.1854C41.0187 38.1618 40.7768 32.8099 48.376 32.7803C55.4008 32.7529 55.5102 38.0608 62.27 38.0345C66.4673 38.0181 69.8981 34.1239 69.8814 29.8862C69.9086 25.6483 66.4029 21.7814 61.8082 21.7993Z" fill="#04AFFF"/>
<path d="M417.485 30.4879L413.133 33.445C413.133 30.3577 412.556 27.9957 411.403 26.3591C410.25 24.6853 408.614 23.8483 406.493 23.8483C404.299 23.8483 402.625 24.6853 401.472 26.3591C400.356 27.9957 399.798 30.3949 399.798 33.5566C399.798 36.6811 400.393 39.0802 401.583 40.7541C402.811 42.3907 404.541 43.209 406.772 43.209C408.372 43.209 409.692 42.8557 410.734 42.1489C411.812 41.405 412.594 40.2519 413.077 38.6897H421C420.219 42.1489 418.545 44.7899 415.978 46.6125C413.449 48.4351 410.38 49.3464 406.772 49.3464C403.759 49.3464 401.137 48.7141 398.905 47.4494C396.711 46.1847 395.018 44.3807 393.828 42.0373C392.675 39.6568 392.098 36.8299 392.098 33.5566C392.098 30.1717 392.675 27.3076 393.828 24.9642C395.018 22.5837 396.692 20.7796 398.85 19.5522C401.044 18.3247 403.592 17.7109 406.493 17.7109C409.432 17.7109 411.961 18.3433 414.081 19.608C416.239 20.8726 417.894 22.6766 419.047 25.02C420.2 27.3262 420.777 30.0973 420.777 33.3334V35.063H395.167V30.4879H417.485Z" fill="#0A0D15"/>
<path d="M372.633 49.3466C370.067 49.3466 367.835 48.7143 365.938 47.4496C364.041 46.1849 362.59 44.3809 361.586 42.0375C360.582 39.657 360.079 36.83 360.079 33.5568C360.079 28.4981 361.214 24.5924 363.483 21.8399C365.789 19.0874 368.839 17.7111 372.633 17.7111C375.944 17.7111 378.547 19.0688 380.444 21.7841C382.379 24.4995 383.346 28.4237 383.346 33.5568C383.346 36.83 382.899 39.657 382.007 42.0375C381.151 44.4181 379.924 46.2407 378.324 47.5054C376.725 48.7329 374.828 49.3466 372.633 49.3466ZM374.084 43.1534C376.167 43.1534 377.729 42.3351 378.771 40.6985C379.849 39.0618 380.389 36.6813 380.389 33.5568C380.389 30.4695 379.849 28.0889 378.771 26.4151C377.692 24.7412 376.13 23.9043 374.084 23.9043C372.038 23.9043 370.476 24.7412 369.397 26.4151C368.356 28.0517 367.835 30.4323 367.835 33.5568C367.835 36.6441 368.374 39.0246 369.453 40.6985C370.532 42.3351 372.075 43.1534 374.084 43.1534ZM380.389 48.5097V8.33765H387.977V48.5097H380.389Z" fill="#0A0D15"/>
<path d="M348.361 48.5097V18.6038H355.894V48.5097H348.361ZM348.361 15.3678V8.33765H355.894V15.3678H348.361Z" fill="#0A0D15"/>
<path d="M342.891 18.6035V48.5094H335.303V18.6035H342.891ZM335.303 35.8998H337.59C337.441 38.9499 336.865 41.4793 335.861 43.4879C334.893 45.4593 333.61 46.9285 332.011 47.8956C330.448 48.8627 328.663 49.3463 326.654 49.3463C324.72 49.3463 323.009 48.9557 321.521 48.1746C320.033 47.3935 318.862 46.2032 318.006 44.6038C317.188 42.9671 316.779 40.9399 316.779 38.5222V18.6035H324.311V37.0157C324.311 38.3176 324.497 39.4335 324.869 40.3634C325.241 41.2933 325.78 42 326.487 42.4836C327.231 42.9299 328.161 43.1531 329.277 43.1531C330.207 43.1531 331.044 42.9671 331.788 42.5952C332.531 42.2232 333.164 41.7024 333.685 41.0329C334.205 40.3634 334.596 39.5823 334.856 38.6895C335.154 37.7968 335.303 36.8669 335.303 35.8998Z" fill="#0A0D15"/>
<path d="M311.484 22.3983H303.17C302.612 20.4269 301.608 18.9204 300.158 17.8789C298.707 16.8374 296.959 16.3167 294.913 16.3167C292.867 16.3167 291.119 16.856 289.668 17.9347C288.217 18.9762 287.102 20.5013 286.32 22.5099C285.539 24.4813 285.149 26.8432 285.149 29.5958C285.149 32.3483 285.539 34.7103 286.32 36.6817C287.139 38.6531 288.292 40.1595 289.78 41.201C291.305 42.2425 293.109 42.7633 295.192 42.7633C296.717 42.7633 298.093 42.4843 299.321 41.9263C300.585 41.3312 301.608 40.4013 302.389 39.1366C303.208 37.8719 303.71 36.2539 303.896 34.2825H307.634C307.634 37.7046 307.057 40.5315 305.904 42.7633C304.788 44.995 303.226 46.6503 301.218 47.729C299.246 48.8077 296.977 49.347 294.411 49.347C290.914 49.347 287.864 48.5473 285.26 46.9479C282.657 45.3484 280.629 43.0794 279.179 40.1409C277.765 37.2024 277.059 33.6874 277.059 29.5958C277.059 25.5042 277.784 21.9705 279.235 18.9948C280.685 16.0191 282.75 13.7315 285.428 12.1321C288.143 10.5326 291.379 9.73291 295.136 9.73291C297.777 9.73291 300.232 10.2165 302.501 11.1836C304.77 12.1135 306.685 13.5269 308.248 15.424C309.847 17.2838 310.926 19.6085 311.484 22.3983ZM311.428 48.5101H305.96L303.896 34.2825H296.029V28.3125H311.428V48.5101Z" fill="#0A0D15"/>
<path d="M254.94 48.5097V18.6038H262.472V48.5097H254.94ZM254.94 15.3678V8.33765H262.472V15.3678H254.94Z" fill="#0A0D15"/>
<path d="M230.558 28.4235H223.025C223.323 26.1917 224.048 24.2761 225.201 22.6767C226.392 21.0772 227.935 19.8497 229.832 18.9942C231.729 18.1387 233.943 17.7109 236.472 17.7109C239.262 17.7109 241.586 18.2317 243.446 19.2732C245.343 20.2775 246.757 21.6724 247.687 23.4578C248.654 25.206 249.137 27.2518 249.137 29.5952V41.1446C249.137 43.0045 249.212 44.5109 249.36 45.664C249.546 46.7799 249.788 47.7284 250.086 48.5095H242.219C241.958 47.7656 241.791 46.8357 241.717 45.7198C241.642 44.5667 241.605 43.395 241.605 42.2047V29.5952C241.605 27.7354 241.14 26.3219 240.21 25.3548C239.317 24.3877 237.923 23.9041 236.026 23.9041C234.389 23.9041 233.124 24.3319 232.232 25.1874C231.376 26.0057 230.818 27.0844 230.558 28.4235ZM242.554 30.2647V34.8399C239.913 34.8399 237.737 34.9886 236.026 35.2862C234.352 35.5466 233.031 35.9185 232.064 36.4021C231.134 36.8857 230.483 37.4622 230.111 38.1317C229.739 38.8013 229.553 39.5266 229.553 40.3077C229.553 41.3864 229.963 42.2605 230.781 42.9301C231.599 43.5624 232.696 43.8786 234.073 43.8786C235.449 43.8786 236.714 43.5438 237.867 42.8743C239.02 42.1675 239.931 41.219 240.601 40.0287C241.27 38.8385 241.605 37.518 241.605 36.0673H244.339C244.19 38.4851 243.725 40.5309 242.944 42.2047C242.2 43.8786 241.233 45.2362 240.043 46.2777C238.89 47.3192 237.606 48.0817 236.193 48.5653C234.817 49.0861 233.403 49.3464 231.953 49.3464C230.018 49.3464 228.289 49.0303 226.764 48.3979C225.276 47.7656 224.104 46.7985 223.249 45.4966C222.393 44.1947 221.965 42.5953 221.965 40.6983C221.965 38.6525 222.542 36.8857 223.695 35.3978C224.848 33.9099 226.596 32.7755 228.94 31.9943C231.023 31.2876 233.143 30.8226 235.3 30.5995C237.458 30.3763 239.875 30.2647 242.554 30.2647Z" fill="#0A0D15"/>
<path d="M207.869 17.7667C207.869 14.3818 208.613 11.8339 210.101 10.1228C211.626 8.3746 213.839 7.50049 216.741 7.50049C217.708 7.50049 218.526 7.57488 219.196 7.72367C219.902 7.87245 220.442 8.03983 220.814 8.22581V13.0799H220.2C218.266 13.0799 216.983 13.4891 216.35 14.3074C215.718 15.0885 215.402 16.2602 215.402 17.8225V48.5095H207.869V17.7667ZM204.075 24.4062V18.6036H220.814V24.4062H204.075Z" fill="#0A0D15"/>
<path d="M193.92 48.5097V18.6038H201.452V48.5097H193.92ZM193.92 15.3678V8.33765H201.452V15.3678H193.92Z" fill="#0A0D15"/>
<path d="M172.471 48.5095V18.6037H180.003V48.5095H172.471ZM180.003 32.7197H177.772C177.883 29.1488 178.423 26.2661 179.39 24.0715C180.394 21.8769 181.659 20.2775 183.184 19.2732C184.709 18.2317 186.345 17.7109 188.094 17.7109C188.726 17.7109 189.303 17.7853 189.823 17.9341C190.344 18.0829 190.753 18.3061 191.051 18.6037V25.0758C190.567 24.927 190.046 24.834 189.489 24.7968C188.968 24.7225 188.391 24.6853 187.759 24.6853C186.42 24.6853 185.267 24.8712 184.3 25.2432C183.333 25.6152 182.533 26.1545 181.9 26.8612C181.268 27.568 180.785 28.4235 180.45 29.4278C180.152 30.3949 180.003 31.4922 180.003 32.7197Z" fill="#0A0D15"/>
<path d="M148.088 28.4235H140.556C140.854 26.1917 141.579 24.2761 142.732 22.6767C143.922 21.0772 145.466 19.8497 147.363 18.9942C149.26 18.1387 151.473 17.7109 154.003 17.7109C156.792 17.7109 159.117 18.2317 160.977 19.2732C162.874 20.2775 164.287 21.6724 165.217 23.4578C166.184 25.206 166.668 27.2518 166.668 29.5952V41.1446C166.668 43.0045 166.742 44.5109 166.891 45.664C167.077 46.7799 167.319 47.7284 167.617 48.5095H159.75C159.489 47.7656 159.322 46.8357 159.247 45.7198C159.173 44.5667 159.136 43.395 159.136 42.2047V29.5952C159.136 27.7354 158.671 26.3219 157.741 25.3548C156.848 24.3877 155.453 23.9041 153.556 23.9041C151.92 23.9041 150.655 24.3319 149.762 25.1874C148.907 26.0057 148.349 27.0844 148.088 28.4235ZM160.084 30.2647V34.8399C157.443 34.8399 155.267 34.9886 153.556 35.2862C151.882 35.5466 150.562 35.9185 149.595 36.4021C148.665 36.8857 148.014 37.4622 147.642 38.1317C147.27 38.8013 147.084 39.5266 147.084 40.3077C147.084 41.3864 147.493 42.2605 148.312 42.9301C149.13 43.5624 150.227 43.8786 151.604 43.8786C152.98 43.8786 154.244 43.5438 155.398 42.8743C156.551 42.1675 157.462 41.219 158.131 40.0287C158.801 38.8385 159.136 37.518 159.136 36.0673H161.87C161.721 38.4851 161.256 40.5309 160.475 42.2047C159.731 43.8786 158.764 45.2362 157.574 46.2777C156.42 47.3192 155.137 48.0817 153.724 48.5653C152.347 49.0861 150.934 49.3464 149.483 49.3464C147.549 49.3464 145.819 49.0303 144.294 48.3979C142.807 47.7656 141.635 46.7985 140.779 45.4966C139.924 44.1947 139.496 42.5953 139.496 40.6983C139.496 38.6525 140.073 36.8857 141.226 35.3978C142.379 33.9099 144.127 32.7755 146.47 31.9943C148.553 31.2876 150.674 30.8226 152.831 30.5995C154.988 30.3763 157.406 30.2647 160.084 30.2647Z" fill="#0A0D15"/>
<path d="M127.723 48.5097V8.33765H135.255V48.5097H127.723Z" fill="#0A0D15"/>
<path d="M123.518 22.3983H115.204C114.646 20.4269 113.642 18.9204 112.191 17.8789C110.741 16.8374 108.993 16.3167 106.947 16.3167C104.901 16.3167 103.153 16.856 101.702 17.9347C100.251 18.9762 99.1355 20.5013 98.3544 22.5099C97.5733 24.4813 97.1827 26.8432 97.1827 29.5958C97.1827 32.3483 97.5547 34.7103 98.2986 36.6817C99.0797 38.6531 100.196 40.1595 101.646 41.201C103.097 42.2425 104.864 42.7633 106.947 42.7633C108.881 42.7633 110.573 42.2797 112.024 41.3126C113.475 40.3083 114.498 38.8576 115.093 36.9606H123.462C122.83 39.6016 121.714 41.852 120.114 43.7118C118.515 45.5716 116.599 46.985 114.367 47.9522C112.136 48.8821 109.699 49.347 107.058 49.347C103.339 49.347 100.121 48.5473 97.4059 46.9479C94.7278 45.3484 92.6634 43.0794 91.2127 40.1409C89.7993 37.2024 89.0925 33.6874 89.0925 29.5958C89.0925 25.5042 89.8179 21.9705 91.2685 18.9948C92.7192 16.0191 94.7836 13.7315 97.4617 12.1321C100.177 10.5326 103.413 9.73291 107.17 9.73291C109.811 9.73291 112.266 10.2165 114.535 11.1836C116.804 12.1135 118.719 13.5269 120.282 15.424C121.881 17.2838 122.96 19.6085 123.518 22.3983Z" fill="#0A0D15"/>
</svg>
