<svg width="421" height="60" viewBox="0 0 421 60" fill="none" xmlns="http://www.w3.org/2000/svg">
<path d="M8.236 38.2896C3.77366 38.307 0.136262 34.6636 0.118412 30.1582C0.100562 25.653 3.70916 22.0258 8.12733 22.0086C12.5455 21.9914 16.1829 25.6348 16.2006 30.0955C16.2182 34.5562 12.6984 38.2722 8.236 38.2896ZM49.7927 0.0778343C43.8283 0.101089 43.5834 5.18726 34.4818 5.22274C25.292 5.25857 24.5209 0.176367 19.0865 0.197556C14.6242 0.214954 11.0599 3.88663 11.0776 8.34727C11.0953 12.8079 14.7326 16.4515 19.1508 16.4343C25.1596 16.4108 25.4045 11.3247 34.5058 11.2892C43.6956 11.2534 44.467 16.3355 49.9014 16.3144C54.3637 16.297 57.9279 12.6253 57.9103 8.16467C57.8926 3.70404 54.2552 0.0604353 49.7927 0.0778343ZM49.9651 43.5691C43.9565 43.5925 43.7114 48.6786 34.61 48.7141C25.4202 48.7499 24.6489 43.6678 19.2146 43.689C14.7523 43.7064 11.1881 47.3779 11.2057 51.8386C11.2234 56.2993 14.8608 59.943 19.279 59.9257C25.2876 59.9023 25.5327 54.816 34.6341 54.7805C43.8238 54.7447 44.595 59.827 50.0294 59.8058C54.4919 59.7884 58.0559 56.1167 58.0383 51.656C58.0206 47.1953 54.4276 43.5517 49.9651 43.5691ZM61.8082 21.7993C55.7553 21.8229 55.9974 27.1748 48.398 27.2044C41.3732 27.2318 41.2638 21.9239 34.504 21.9502C30.3067 21.9666 26.8759 25.8608 26.8926 30.0985C26.9094 34.3359 30.4152 38.2031 34.9658 38.1854C41.0187 38.1618 40.7768 32.8099 48.376 32.7803C55.4008 32.7529 55.5102 38.0608 62.27 38.0345C66.4673 38.0181 69.8981 34.1239 69.8814 29.8862C69.9086 25.6483 66.4029 21.7814 61.8082 21.7993Z" fill="#04AFFF"/>
<path d="M417.485 30.2772L413.133 33.2343C413.133 30.147 412.556 27.785 411.403 26.1484C410.25 24.4746 408.614 23.6376 406.493 23.6376C404.299 23.6376 402.625 24.4746 401.472 26.1484C400.356 27.785 399.798 30.1842 399.798 33.3459C399.798 36.4704 400.393 38.8695 401.583 40.5434C402.811 42.18 404.541 42.9983 406.772 42.9983C408.372 42.9983 409.692 42.645 410.734 41.9382C411.812 41.1943 412.594 40.0412 413.077 38.479H421C420.219 41.9382 418.545 44.5792 415.978 46.4018C413.449 48.2244 410.38 49.1357 406.772 49.1357C403.759 49.1357 401.137 48.5034 398.905 47.2387C396.711 45.974 395.018 44.17 393.828 41.8267C392.675 39.4461 392.098 36.6192 392.098 33.3459C392.098 29.961 392.675 27.0969 393.828 24.7535C395.018 22.373 396.692 20.5689 398.85 19.3415C401.044 18.114 403.592 17.5002 406.493 17.5002C409.432 17.5002 411.961 18.1326 414.081 19.3973C416.239 20.6619 417.894 22.466 419.047 24.8093C420.2 27.1155 420.777 29.8866 420.777 33.1227V34.8523H395.167V30.2772H417.485Z" fill="url(#paint0_linear_2913_25978)"/>
<path d="M417.485 30.2772L413.133 33.2343C413.133 30.147 412.556 27.785 411.403 26.1484C410.25 24.4746 408.614 23.6376 406.493 23.6376C404.299 23.6376 402.625 24.4746 401.472 26.1484C400.356 27.785 399.798 30.1842 399.798 33.3459C399.798 36.4704 400.393 38.8695 401.583 40.5434C402.811 42.18 404.541 42.9983 406.772 42.9983C408.372 42.9983 409.692 42.645 410.734 41.9382C411.812 41.1943 412.594 40.0412 413.077 38.479H421C420.219 41.9382 418.545 44.5792 415.978 46.4018C413.449 48.2244 410.38 49.1357 406.772 49.1357C403.759 49.1357 401.137 48.5034 398.905 47.2387C396.711 45.974 395.018 44.17 393.828 41.8267C392.675 39.4461 392.098 36.6192 392.098 33.3459C392.098 29.961 392.675 27.0969 393.828 24.7535C395.018 22.373 396.692 20.5689 398.85 19.3415C401.044 18.114 403.592 17.5002 406.493 17.5002C409.432 17.5002 411.961 18.1326 414.081 19.3973C416.239 20.6619 417.894 22.466 419.047 24.8093C420.2 27.1155 420.777 29.8866 420.777 33.1227V34.8523H395.167V30.2772H417.485Z" fill="white"/>
<path d="M372.633 49.1359C370.067 49.1359 367.835 48.5036 365.938 47.2389C364.041 45.9742 362.59 44.1702 361.586 41.8268C360.582 39.4463 360.079 36.6194 360.079 33.3461C360.079 28.2874 361.214 24.3818 363.483 21.6292C365.789 18.8767 368.839 17.5004 372.633 17.5004C375.944 17.5004 378.547 18.8581 380.444 21.5734C382.379 24.2888 383.346 28.213 383.346 33.3461C383.346 36.6194 382.899 39.4463 382.007 41.8268C381.151 44.2074 379.924 46.03 378.324 47.2947C376.725 48.5222 374.828 49.1359 372.633 49.1359ZM374.084 42.9427C376.167 42.9427 377.729 42.1244 378.771 40.4878C379.849 38.8511 380.389 36.4706 380.389 33.3461C380.389 30.2588 379.849 27.8782 378.771 26.2044C377.692 24.5305 376.13 23.6936 374.084 23.6936C372.038 23.6936 370.476 24.5305 369.397 26.2044C368.356 27.841 367.835 30.2216 367.835 33.3461C367.835 36.4334 368.374 38.8139 369.453 40.4878C370.532 42.1244 372.075 42.9427 374.084 42.9427ZM380.389 48.299V8.12695H387.977V48.299H380.389Z" fill="url(#paint1_linear_2913_25978)"/>
<path d="M372.633 49.1359C370.067 49.1359 367.835 48.5036 365.938 47.2389C364.041 45.9742 362.59 44.1702 361.586 41.8268C360.582 39.4463 360.079 36.6194 360.079 33.3461C360.079 28.2874 361.214 24.3818 363.483 21.6292C365.789 18.8767 368.839 17.5004 372.633 17.5004C375.944 17.5004 378.547 18.8581 380.444 21.5734C382.379 24.2888 383.346 28.213 383.346 33.3461C383.346 36.6194 382.899 39.4463 382.007 41.8268C381.151 44.2074 379.924 46.03 378.324 47.2947C376.725 48.5222 374.828 49.1359 372.633 49.1359ZM374.084 42.9427C376.167 42.9427 377.729 42.1244 378.771 40.4878C379.849 38.8511 380.389 36.4706 380.389 33.3461C380.389 30.2588 379.849 27.8782 378.771 26.2044C377.692 24.5305 376.13 23.6936 374.084 23.6936C372.038 23.6936 370.476 24.5305 369.397 26.2044C368.356 27.841 367.835 30.2216 367.835 33.3461C367.835 36.4334 368.374 38.8139 369.453 40.4878C370.532 42.1244 372.075 42.9427 374.084 42.9427ZM380.389 48.299V8.12695H387.977V48.299H380.389Z" fill="white"/>
<path d="M348.361 48.299V18.3931H355.894V48.299H348.361ZM348.361 15.1571V8.12695H355.894V15.1571H348.361Z" fill="url(#paint2_linear_2913_25978)"/>
<path d="M348.361 48.299V18.3931H355.894V48.299H348.361ZM348.361 15.1571V8.12695H355.894V15.1571H348.361Z" fill="white"/>
<path d="M342.891 18.3928V48.2987H335.303V18.3928H342.891ZM335.303 35.6891H337.59C337.441 38.7392 336.865 41.2686 335.861 43.2772C334.893 45.2486 333.61 46.7178 332.011 47.6849C330.448 48.652 328.663 49.1356 326.654 49.1356C324.72 49.1356 323.009 48.745 321.521 47.9639C320.033 47.1828 318.862 45.9925 318.006 44.3931C317.188 42.7564 316.779 40.7292 316.779 38.3115V18.3928H324.311V36.805C324.311 38.1069 324.497 39.2228 324.869 40.1527C325.241 41.0826 325.78 41.7893 326.487 42.2729C327.231 42.7192 328.161 42.9424 329.277 42.9424C330.207 42.9424 331.044 42.7564 331.788 42.3845C332.531 42.0125 333.164 41.4918 333.685 40.8222C334.205 40.1527 334.596 39.3716 334.856 38.4788C335.154 37.5861 335.303 36.6562 335.303 35.6891Z" fill="url(#paint3_linear_2913_25978)"/>
<path d="M342.891 18.3928V48.2987H335.303V18.3928H342.891ZM335.303 35.6891H337.59C337.441 38.7392 336.865 41.2686 335.861 43.2772C334.893 45.2486 333.61 46.7178 332.011 47.6849C330.448 48.652 328.663 49.1356 326.654 49.1356C324.72 49.1356 323.009 48.745 321.521 47.9639C320.033 47.1828 318.862 45.9925 318.006 44.3931C317.188 42.7564 316.779 40.7292 316.779 38.3115V18.3928H324.311V36.805C324.311 38.1069 324.497 39.2228 324.869 40.1527C325.241 41.0826 325.78 41.7893 326.487 42.2729C327.231 42.7192 328.161 42.9424 329.277 42.9424C330.207 42.9424 331.044 42.7564 331.788 42.3845C332.531 42.0125 333.164 41.4918 333.685 40.8222C334.205 40.1527 334.596 39.3716 334.856 38.4788C335.154 37.5861 335.303 36.6562 335.303 35.6891Z" fill="white"/>
<path d="M311.484 22.1876H303.17C302.612 20.2162 301.608 18.7097 300.158 17.6682C298.707 16.6267 296.959 16.106 294.913 16.106C292.867 16.106 291.119 16.6453 289.668 17.724C288.217 18.7655 287.102 20.2906 286.32 22.2992C285.539 24.2706 285.149 26.6325 285.149 29.3851C285.149 32.1376 285.539 34.4996 286.32 36.471C287.139 38.4424 288.292 39.9488 289.78 40.9903C291.305 42.0318 293.109 42.5526 295.192 42.5526C296.717 42.5526 298.093 42.2736 299.321 41.7157C300.585 41.1205 301.608 40.1906 302.389 38.9259C303.208 37.6613 303.71 36.0432 303.896 34.0718H307.634C307.634 37.4939 307.057 40.3208 305.904 42.5526C304.788 44.7844 303.226 46.4396 301.218 47.5183C299.246 48.597 296.977 49.1363 294.411 49.1363C290.914 49.1363 287.864 48.3366 285.26 46.7372C282.657 45.1377 280.629 42.8687 279.179 39.9302C277.765 36.9917 277.059 33.4767 277.059 29.3851C277.059 25.2935 277.784 21.7598 279.235 18.7841C280.685 15.8084 282.75 13.5208 285.428 11.9214C288.143 10.3219 291.379 9.52222 295.136 9.52222C297.777 9.52222 300.232 10.0058 302.501 10.9729C304.77 11.9028 306.685 13.3162 308.248 15.2133C309.847 17.0731 310.926 19.3978 311.484 22.1876ZM311.428 48.2994H305.96L303.896 34.0718H296.029V28.1018H311.428V48.2994Z" fill="url(#paint4_linear_2913_25978)"/>
<path d="M311.484 22.1876H303.17C302.612 20.2162 301.608 18.7097 300.158 17.6682C298.707 16.6267 296.959 16.106 294.913 16.106C292.867 16.106 291.119 16.6453 289.668 17.724C288.217 18.7655 287.102 20.2906 286.32 22.2992C285.539 24.2706 285.149 26.6325 285.149 29.3851C285.149 32.1376 285.539 34.4996 286.32 36.471C287.139 38.4424 288.292 39.9488 289.78 40.9903C291.305 42.0318 293.109 42.5526 295.192 42.5526C296.717 42.5526 298.093 42.2736 299.321 41.7157C300.585 41.1205 301.608 40.1906 302.389 38.9259C303.208 37.6613 303.71 36.0432 303.896 34.0718H307.634C307.634 37.4939 307.057 40.3208 305.904 42.5526C304.788 44.7844 303.226 46.4396 301.218 47.5183C299.246 48.597 296.977 49.1363 294.411 49.1363C290.914 49.1363 287.864 48.3366 285.26 46.7372C282.657 45.1377 280.629 42.8687 279.179 39.9302C277.765 36.9917 277.059 33.4767 277.059 29.3851C277.059 25.2935 277.784 21.7598 279.235 18.7841C280.685 15.8084 282.75 13.5208 285.428 11.9214C288.143 10.3219 291.379 9.52222 295.136 9.52222C297.777 9.52222 300.232 10.0058 302.501 10.9729C304.77 11.9028 306.685 13.3162 308.248 15.2133C309.847 17.0731 310.926 19.3978 311.484 22.1876ZM311.428 48.2994H305.96L303.896 34.0718H296.029V28.1018H311.428V48.2994Z" fill="white"/>
<path d="M254.94 48.299V18.3931H262.472V48.299H254.94ZM254.94 15.1571V8.12695H262.472V15.1571H254.94Z" fill="url(#paint5_linear_2913_25978)"/>
<path d="M254.94 48.299V18.3931H262.472V48.299H254.94ZM254.94 15.1571V8.12695H262.472V15.1571H254.94Z" fill="white"/>
<path d="M230.558 28.2128H223.025C223.323 25.981 224.048 24.0654 225.201 22.466C226.392 20.8665 227.935 19.639 229.832 18.7835C231.729 17.928 233.943 17.5002 236.472 17.5002C239.262 17.5002 241.586 18.021 243.446 19.0625C245.343 20.0668 246.757 21.4617 247.687 23.2471C248.654 24.9953 249.137 27.0411 249.137 29.3845V40.9339C249.137 42.7938 249.212 44.3002 249.36 45.4533C249.546 46.5692 249.788 47.5177 250.086 48.2988H242.219C241.958 47.5549 241.791 46.625 241.717 45.5091C241.642 44.356 241.605 43.1843 241.605 41.994V29.3845C241.605 27.5247 241.14 26.1112 240.21 25.1441C239.317 24.177 237.923 23.6934 236.026 23.6934C234.389 23.6934 233.124 24.1212 232.232 24.9767C231.376 25.795 230.818 26.8737 230.558 28.2128ZM242.554 30.054V34.6292C239.913 34.6292 237.737 34.7779 236.026 35.0755C234.352 35.3359 233.031 35.7079 232.064 36.1914C231.134 36.675 230.483 37.2515 230.111 37.921C229.739 38.5906 229.553 39.3159 229.553 40.097C229.553 41.1757 229.963 42.0498 230.781 42.7194C231.599 43.3517 232.696 43.6679 234.073 43.6679C235.449 43.6679 236.714 43.3331 237.867 42.6636C239.02 41.9568 239.931 41.0083 240.601 39.818C241.27 38.6278 241.605 37.3073 241.605 35.8566H244.339C244.19 38.2744 243.725 40.3202 242.944 41.994C242.2 43.6679 241.233 45.0255 240.043 46.067C238.89 47.1085 237.606 47.8711 236.193 48.3546C234.817 48.8754 233.403 49.1357 231.953 49.1357C230.018 49.1357 228.289 48.8196 226.764 48.1872C225.276 47.5549 224.104 46.5878 223.249 45.2859C222.393 43.984 221.965 42.3846 221.965 40.4876C221.965 38.4418 222.542 36.675 223.695 35.1871C224.848 33.6993 226.596 32.5648 228.94 31.7836C231.023 31.0769 233.143 30.612 235.3 30.3888C237.458 30.1656 239.875 30.054 242.554 30.054Z" fill="url(#paint6_linear_2913_25978)"/>
<path d="M230.558 28.2128H223.025C223.323 25.981 224.048 24.0654 225.201 22.466C226.392 20.8665 227.935 19.639 229.832 18.7835C231.729 17.928 233.943 17.5002 236.472 17.5002C239.262 17.5002 241.586 18.021 243.446 19.0625C245.343 20.0668 246.757 21.4617 247.687 23.2471C248.654 24.9953 249.137 27.0411 249.137 29.3845V40.9339C249.137 42.7938 249.212 44.3002 249.36 45.4533C249.546 46.5692 249.788 47.5177 250.086 48.2988H242.219C241.958 47.5549 241.791 46.625 241.717 45.5091C241.642 44.356 241.605 43.1843 241.605 41.994V29.3845C241.605 27.5247 241.14 26.1112 240.21 25.1441C239.317 24.177 237.923 23.6934 236.026 23.6934C234.389 23.6934 233.124 24.1212 232.232 24.9767C231.376 25.795 230.818 26.8737 230.558 28.2128ZM242.554 30.054V34.6292C239.913 34.6292 237.737 34.7779 236.026 35.0755C234.352 35.3359 233.031 35.7079 232.064 36.1914C231.134 36.675 230.483 37.2515 230.111 37.921C229.739 38.5906 229.553 39.3159 229.553 40.097C229.553 41.1757 229.963 42.0498 230.781 42.7194C231.599 43.3517 232.696 43.6679 234.073 43.6679C235.449 43.6679 236.714 43.3331 237.867 42.6636C239.02 41.9568 239.931 41.0083 240.601 39.818C241.27 38.6278 241.605 37.3073 241.605 35.8566H244.339C244.19 38.2744 243.725 40.3202 242.944 41.994C242.2 43.6679 241.233 45.0255 240.043 46.067C238.89 47.1085 237.606 47.8711 236.193 48.3546C234.817 48.8754 233.403 49.1357 231.953 49.1357C230.018 49.1357 228.289 48.8196 226.764 48.1872C225.276 47.5549 224.104 46.5878 223.249 45.2859C222.393 43.984 221.965 42.3846 221.965 40.4876C221.965 38.4418 222.542 36.675 223.695 35.1871C224.848 33.6993 226.596 32.5648 228.94 31.7836C231.023 31.0769 233.143 30.612 235.3 30.3888C237.458 30.1656 239.875 30.054 242.554 30.054Z" fill="white"/>
<path d="M207.869 17.556C207.869 14.1711 208.613 11.6232 210.101 9.91214C211.626 8.16391 213.839 7.28979 216.741 7.28979C217.708 7.28979 218.526 7.36419 219.196 7.51297C219.902 7.66176 220.442 7.82914 220.814 8.01512V12.8692H220.2C218.266 12.8692 216.983 13.2784 216.35 14.0967C215.718 14.8778 215.402 16.0495 215.402 17.6118V48.2988H207.869V17.556ZM204.075 24.1955V18.3929H220.814V24.1955H204.075Z" fill="url(#paint7_linear_2913_25978)"/>
<path d="M207.869 17.556C207.869 14.1711 208.613 11.6232 210.101 9.91214C211.626 8.16391 213.839 7.28979 216.741 7.28979C217.708 7.28979 218.526 7.36419 219.196 7.51297C219.902 7.66176 220.442 7.82914 220.814 8.01512V12.8692H220.2C218.266 12.8692 216.983 13.2784 216.35 14.0967C215.718 14.8778 215.402 16.0495 215.402 17.6118V48.2988H207.869V17.556ZM204.075 24.1955V18.3929H220.814V24.1955H204.075Z" fill="white"/>
<path d="M193.92 48.299V18.3931H201.452V48.299H193.92ZM193.92 15.1571V8.12695H201.452V15.1571H193.92Z" fill="url(#paint8_linear_2913_25978)"/>
<path d="M193.92 48.299V18.3931H201.452V48.299H193.92ZM193.92 15.1571V8.12695H201.452V15.1571H193.92Z" fill="white"/>
<path d="M172.471 48.2988V18.393H180.003V48.2988H172.471ZM180.003 32.509H177.772C177.883 28.9381 178.423 26.0554 179.39 23.8608C180.394 21.6662 181.659 20.0668 183.184 19.0625C184.709 18.021 186.345 17.5002 188.094 17.5002C188.726 17.5002 189.303 17.5746 189.823 17.7234C190.344 17.8722 190.753 18.0954 191.051 18.393V24.8651C190.567 24.7163 190.046 24.6233 189.489 24.5861C188.968 24.5118 188.391 24.4746 187.759 24.4746C186.42 24.4746 185.267 24.6605 184.3 25.0325C183.333 25.4045 182.533 25.9438 181.9 26.6505C181.268 27.3573 180.785 28.2128 180.45 29.2171C180.152 30.1842 180.003 31.2815 180.003 32.509Z" fill="url(#paint9_linear_2913_25978)"/>
<path d="M172.471 48.2988V18.393H180.003V48.2988H172.471ZM180.003 32.509H177.772C177.883 28.9381 178.423 26.0554 179.39 23.8608C180.394 21.6662 181.659 20.0668 183.184 19.0625C184.709 18.021 186.345 17.5002 188.094 17.5002C188.726 17.5002 189.303 17.5746 189.823 17.7234C190.344 17.8722 190.753 18.0954 191.051 18.393V24.8651C190.567 24.7163 190.046 24.6233 189.489 24.5861C188.968 24.5118 188.391 24.4746 187.759 24.4746C186.42 24.4746 185.267 24.6605 184.3 25.0325C183.333 25.4045 182.533 25.9438 181.9 26.6505C181.268 27.3573 180.785 28.2128 180.45 29.2171C180.152 30.1842 180.003 31.2815 180.003 32.509Z" fill="white"/>
<path d="M148.088 28.2128H140.556C140.854 25.981 141.579 24.0654 142.732 22.466C143.922 20.8665 145.466 19.639 147.363 18.7835C149.26 17.928 151.473 17.5002 154.003 17.5002C156.792 17.5002 159.117 18.021 160.977 19.0625C162.874 20.0668 164.287 21.4617 165.217 23.2471C166.184 24.9953 166.668 27.0411 166.668 29.3845V40.9339C166.668 42.7938 166.742 44.3002 166.891 45.4533C167.077 46.5692 167.319 47.5177 167.617 48.2988H159.75C159.489 47.5549 159.322 46.625 159.247 45.5091C159.173 44.356 159.136 43.1843 159.136 41.994V29.3845C159.136 27.5247 158.671 26.1112 157.741 25.1441C156.848 24.177 155.453 23.6934 153.556 23.6934C151.92 23.6934 150.655 24.1212 149.762 24.9767C148.907 25.795 148.349 26.8737 148.088 28.2128ZM160.084 30.054V34.6292C157.443 34.6292 155.267 34.7779 153.556 35.0755C151.882 35.3359 150.562 35.7079 149.595 36.1914C148.665 36.675 148.014 37.2515 147.642 37.921C147.27 38.5906 147.084 39.3159 147.084 40.097C147.084 41.1757 147.493 42.0498 148.312 42.7194C149.13 43.3517 150.227 43.6679 151.604 43.6679C152.98 43.6679 154.244 43.3331 155.398 42.6636C156.551 41.9568 157.462 41.0083 158.131 39.818C158.801 38.6278 159.136 37.3073 159.136 35.8566H161.87C161.721 38.2744 161.256 40.3202 160.475 41.994C159.731 43.6679 158.764 45.0255 157.574 46.067C156.42 47.1085 155.137 47.8711 153.724 48.3546C152.347 48.8754 150.934 49.1357 149.483 49.1357C147.549 49.1357 145.819 48.8196 144.294 48.1872C142.807 47.5549 141.635 46.5878 140.779 45.2859C139.924 43.984 139.496 42.3846 139.496 40.4876C139.496 38.4418 140.073 36.675 141.226 35.1871C142.379 33.6993 144.127 32.5648 146.47 31.7836C148.553 31.0769 150.674 30.612 152.831 30.3888C154.988 30.1656 157.406 30.054 160.084 30.054Z" fill="url(#paint10_linear_2913_25978)"/>
<path d="M148.088 28.2128H140.556C140.854 25.981 141.579 24.0654 142.732 22.466C143.922 20.8665 145.466 19.639 147.363 18.7835C149.26 17.928 151.473 17.5002 154.003 17.5002C156.792 17.5002 159.117 18.021 160.977 19.0625C162.874 20.0668 164.287 21.4617 165.217 23.2471C166.184 24.9953 166.668 27.0411 166.668 29.3845V40.9339C166.668 42.7938 166.742 44.3002 166.891 45.4533C167.077 46.5692 167.319 47.5177 167.617 48.2988H159.75C159.489 47.5549 159.322 46.625 159.247 45.5091C159.173 44.356 159.136 43.1843 159.136 41.994V29.3845C159.136 27.5247 158.671 26.1112 157.741 25.1441C156.848 24.177 155.453 23.6934 153.556 23.6934C151.92 23.6934 150.655 24.1212 149.762 24.9767C148.907 25.795 148.349 26.8737 148.088 28.2128ZM160.084 30.054V34.6292C157.443 34.6292 155.267 34.7779 153.556 35.0755C151.882 35.3359 150.562 35.7079 149.595 36.1914C148.665 36.675 148.014 37.2515 147.642 37.921C147.27 38.5906 147.084 39.3159 147.084 40.097C147.084 41.1757 147.493 42.0498 148.312 42.7194C149.13 43.3517 150.227 43.6679 151.604 43.6679C152.98 43.6679 154.244 43.3331 155.398 42.6636C156.551 41.9568 157.462 41.0083 158.131 39.818C158.801 38.6278 159.136 37.3073 159.136 35.8566H161.87C161.721 38.2744 161.256 40.3202 160.475 41.994C159.731 43.6679 158.764 45.0255 157.574 46.067C156.42 47.1085 155.137 47.8711 153.724 48.3546C152.347 48.8754 150.934 49.1357 149.483 49.1357C147.549 49.1357 145.819 48.8196 144.294 48.1872C142.807 47.5549 141.635 46.5878 140.779 45.2859C139.924 43.984 139.496 42.3846 139.496 40.4876C139.496 38.4418 140.073 36.675 141.226 35.1871C142.379 33.6993 144.127 32.5648 146.47 31.7836C148.553 31.0769 150.674 30.612 152.831 30.3888C154.988 30.1656 157.406 30.054 160.084 30.054Z" fill="white"/>
<path d="M127.723 48.299V8.12695H135.255V48.299H127.723Z" fill="url(#paint11_linear_2913_25978)"/>
<path d="M127.723 48.299V8.12695H135.255V48.299H127.723Z" fill="white"/>
<path d="M123.518 22.1876H115.204C114.646 20.2162 113.642 18.7097 112.191 17.6682C110.741 16.6267 108.993 16.106 106.947 16.106C104.901 16.106 103.153 16.6453 101.702 17.724C100.251 18.7655 99.1355 20.2906 98.3544 22.2992C97.5733 24.2706 97.1827 26.6325 97.1827 29.3851C97.1827 32.1376 97.5547 34.4996 98.2986 36.471C99.0797 38.4424 100.196 39.9488 101.646 40.9903C103.097 42.0318 104.864 42.5526 106.947 42.5526C108.881 42.5526 110.573 42.069 112.024 41.1019C113.475 40.0976 114.498 38.647 115.093 36.7499H123.462C122.83 39.3909 121.714 41.6413 120.114 43.5011C118.515 45.3609 116.599 46.7744 114.367 47.7415C112.136 48.6714 109.699 49.1363 107.058 49.1363C103.339 49.1363 100.121 48.3366 97.4059 46.7372C94.7278 45.1377 92.6634 42.8687 91.2127 39.9302C89.7993 36.9917 89.0925 33.4767 89.0925 29.3851C89.0925 25.2935 89.8179 21.7598 91.2685 18.7841C92.7192 15.8084 94.7836 13.5208 97.4617 11.9214C100.177 10.3219 103.413 9.52222 107.17 9.52222C109.811 9.52222 112.266 10.0058 114.535 10.9729C116.804 11.9028 118.719 13.3162 120.282 15.2133C121.881 17.0731 122.96 19.3978 123.518 22.1876Z" fill="url(#paint12_linear_2913_25978)"/>
<path d="M123.518 22.1876H115.204C114.646 20.2162 113.642 18.7097 112.191 17.6682C110.741 16.6267 108.993 16.106 106.947 16.106C104.901 16.106 103.153 16.6453 101.702 17.724C100.251 18.7655 99.1355 20.2906 98.3544 22.2992C97.5733 24.2706 97.1827 26.6325 97.1827 29.3851C97.1827 32.1376 97.5547 34.4996 98.2986 36.471C99.0797 38.4424 100.196 39.9488 101.646 40.9903C103.097 42.0318 104.864 42.5526 106.947 42.5526C108.881 42.5526 110.573 42.069 112.024 41.1019C113.475 40.0976 114.498 38.647 115.093 36.7499H123.462C122.83 39.3909 121.714 41.6413 120.114 43.5011C118.515 45.3609 116.599 46.7744 114.367 47.7415C112.136 48.6714 109.699 49.1363 107.058 49.1363C103.339 49.1363 100.121 48.3366 97.4059 46.7372C94.7278 45.1377 92.6634 42.8687 91.2127 39.9302C89.7993 36.9917 89.0925 33.4767 89.0925 29.3851C89.0925 25.2935 89.8179 21.7598 91.2685 18.7841C92.7192 15.8084 94.7836 13.5208 97.4617 11.9214C100.177 10.3219 103.413 9.52222 107.17 9.52222C109.811 9.52222 112.266 10.0058 114.535 10.9729C116.804 11.9028 118.719 13.3162 120.282 15.2133C121.881 17.0731 122.96 19.3978 123.518 22.1876Z" fill="white"/>
<defs>
<linearGradient id="paint0_linear_2913_25978" x1="261.331" y1="5.19511" x2="261.331" y2="54.9164" gradientUnits="userSpaceOnUse">
<stop stop-color="white"/>
<stop offset="1" stop-color="white" stop-opacity="0.51"/>
</linearGradient>
<linearGradient id="paint1_linear_2913_25978" x1="261.331" y1="5.19498" x2="261.331" y2="54.9163" gradientUnits="userSpaceOnUse">
<stop stop-color="white"/>
<stop offset="1" stop-color="white" stop-opacity="0.51"/>
</linearGradient>
<linearGradient id="paint2_linear_2913_25978" x1="261.331" y1="5.19498" x2="261.331" y2="54.9163" gradientUnits="userSpaceOnUse">
<stop stop-color="white"/>
<stop offset="1" stop-color="white" stop-opacity="0.51"/>
</linearGradient>
<linearGradient id="paint3_linear_2913_25978" x1="261.331" y1="5.19501" x2="261.331" y2="54.9163" gradientUnits="userSpaceOnUse">
<stop stop-color="white"/>
<stop offset="1" stop-color="white" stop-opacity="0.51"/>
</linearGradient>
<linearGradient id="paint4_linear_2913_25978" x1="261.331" y1="5.1952" x2="261.331" y2="54.9165" gradientUnits="userSpaceOnUse">
<stop stop-color="white"/>
<stop offset="1" stop-color="white" stop-opacity="0.51"/>
</linearGradient>
<linearGradient id="paint5_linear_2913_25978" x1="261.331" y1="5.19498" x2="261.331" y2="54.9163" gradientUnits="userSpaceOnUse">
<stop stop-color="white"/>
<stop offset="1" stop-color="white" stop-opacity="0.51"/>
</linearGradient>
<linearGradient id="paint6_linear_2913_25978" x1="261.331" y1="5.19511" x2="261.331" y2="54.9164" gradientUnits="userSpaceOnUse">
<stop stop-color="white"/>
<stop offset="1" stop-color="white" stop-opacity="0.51"/>
</linearGradient>
<linearGradient id="paint7_linear_2913_25978" x1="261.331" y1="5.1951" x2="261.331" y2="54.9164" gradientUnits="userSpaceOnUse">
<stop stop-color="white"/>
<stop offset="1" stop-color="white" stop-opacity="0.51"/>
</linearGradient>
<linearGradient id="paint8_linear_2913_25978" x1="261.331" y1="5.19498" x2="261.331" y2="54.9163" gradientUnits="userSpaceOnUse">
<stop stop-color="white"/>
<stop offset="1" stop-color="white" stop-opacity="0.51"/>
</linearGradient>
<linearGradient id="paint9_linear_2913_25978" x1="261.331" y1="5.19511" x2="261.331" y2="54.9164" gradientUnits="userSpaceOnUse">
<stop stop-color="white"/>
<stop offset="1" stop-color="white" stop-opacity="0.51"/>
</linearGradient>
<linearGradient id="paint10_linear_2913_25978" x1="261.331" y1="5.19511" x2="261.331" y2="54.9164" gradientUnits="userSpaceOnUse">
<stop stop-color="white"/>
<stop offset="1" stop-color="white" stop-opacity="0.51"/>
</linearGradient>
<linearGradient id="paint11_linear_2913_25978" x1="261.331" y1="5.19498" x2="261.331" y2="54.9163" gradientUnits="userSpaceOnUse">
<stop stop-color="white"/>
<stop offset="1" stop-color="white" stop-opacity="0.51"/>
</linearGradient>
<linearGradient id="paint12_linear_2913_25978" x1="261.331" y1="5.1952" x2="261.331" y2="54.9165" gradientUnits="userSpaceOnUse">
<stop stop-color="white"/>
<stop offset="1" stop-color="white" stop-opacity="0.51"/>
</linearGradient>
</defs>
</svg>
