<svg width="394" height="60" viewBox="0 0 394 60" fill="none" xmlns="http://www.w3.org/2000/svg">
<g clip-path="url(#clip0_15461_774)">
<path d="M8.23582 38.2896C3.77348 38.307 0.13608 34.6636 0.11823 30.1582C0.10038 25.653 3.70898 22.0258 8.12715 22.0086C12.5453 21.9914 16.1827 25.6348 16.2004 30.0955C16.218 34.5562 12.6982 38.2722 8.23582 38.2896ZM49.7925 0.0778208C43.8281 0.101076 43.5832 5.18725 34.4816 5.22273C25.2918 5.25856 24.5207 0.176354 19.0863 0.197543C14.624 0.214941 11.0597 3.88662 11.0774 8.34726C11.0951 12.8079 14.7324 16.4515 19.1506 16.4343C25.1594 16.4108 25.4043 11.3247 34.5056 11.2892C43.6954 11.2534 44.4668 16.3355 49.9012 16.3144C54.3635 16.297 57.9277 12.6253 57.9101 8.16466C57.8924 3.70403 54.255 0.0604218 49.7925 0.0778208ZM49.9649 43.5691C43.9563 43.5925 43.7112 48.6786 34.6098 48.7141C25.42 48.7499 24.6487 43.6678 19.2144 43.689C14.7521 43.7064 11.1879 47.3779 11.2055 51.8386C11.2232 56.2993 14.8606 59.943 19.2788 59.9257C25.2874 59.9023 25.5325 54.816 34.6339 54.7805C43.8236 54.7447 44.5948 59.827 50.0292 59.8058C54.4917 59.7884 58.0557 56.1167 58.0381 51.656C58.0204 47.1953 54.4274 43.5517 49.9649 43.5691ZM61.808 21.7993C55.7551 21.8229 55.9972 27.1748 48.3978 27.2044C41.373 27.2318 41.2636 21.9239 34.5038 21.9502C30.3065 21.9666 26.8757 25.8608 26.8924 30.0985C26.9092 34.3359 30.415 38.2031 34.9656 38.1854C41.0185 38.1618 40.7766 32.8099 48.3758 32.7803C55.4006 32.7529 55.51 38.0608 62.2698 38.0345C66.4671 38.0181 69.8979 34.1239 69.8812 29.8862C69.9084 25.6483 66.4027 21.7814 61.808 21.7993Z" fill="#04AFFF"/>
<path d="M99.79 51.648C96.118 51.648 92.86 50.82 90.016 49.164C87.172 47.472 84.94 45.168 83.32 42.252C81.7 39.3 80.89 35.916 80.89 32.1C80.89 28.284 81.7 24.918 83.32 22.002C84.94 19.05 87.154 16.746 89.962 15.09C92.806 13.398 96.064 12.552 99.736 12.552C102.328 12.552 104.74 13.02 106.972 13.956C109.204 14.856 111.148 16.134 112.804 17.79C114.496 19.41 115.792 21.282 116.692 23.406L109.834 25.944C109.222 24.612 108.412 23.46 107.404 22.488C106.396 21.48 105.244 20.706 103.948 20.166C102.652 19.59 101.248 19.302 99.736 19.302C97.54 19.302 95.578 19.86 93.85 20.976C92.158 22.056 90.826 23.55 89.854 25.458C88.918 27.366 88.45 29.58 88.45 32.1C88.45 34.62 88.936 36.852 89.908 38.796C90.88 40.704 92.23 42.216 93.958 43.332C95.686 44.412 97.666 44.952 99.898 44.952C101.446 44.952 102.85 44.664 104.11 44.088C105.406 43.476 106.54 42.648 107.512 41.604C108.52 40.56 109.33 39.354 109.942 37.986L116.8 40.47C115.9 42.666 114.604 44.61 112.912 46.302C111.256 47.994 109.312 49.308 107.08 50.244C104.848 51.18 102.418 51.648 99.79 51.648ZM120.667 51V13.2H127.795V51H120.667ZM149.724 51L149.508 45.546V37.338C149.508 35.718 149.328 34.332 148.968 33.18C148.644 32.028 148.104 31.146 147.348 30.534C146.628 29.886 145.638 29.562 144.378 29.562C143.226 29.562 142.182 29.814 141.246 30.318C140.31 30.822 139.518 31.596 138.87 32.64L132.606 30.48C133.11 29.328 133.848 28.212 134.82 27.132C135.792 26.016 137.052 25.116 138.6 24.432C140.184 23.712 142.11 23.352 144.378 23.352C147.114 23.352 149.382 23.874 151.182 24.918C153.018 25.962 154.368 27.438 155.232 29.346C156.132 31.218 156.564 33.45 156.528 36.042L156.366 51H149.724ZM142.164 51.648C138.924 51.648 136.404 50.928 134.604 49.488C132.84 48.048 131.958 46.014 131.958 43.386C131.958 40.506 132.912 38.346 134.82 36.906C136.764 35.43 139.482 34.692 142.974 34.692H149.832V39.984H145.458C143.118 39.984 141.498 40.272 140.598 40.848C139.698 41.388 139.248 42.162 139.248 43.17C139.248 43.962 139.608 44.592 140.328 45.06C141.048 45.492 142.056 45.708 143.352 45.708C144.54 45.708 145.584 45.438 146.484 44.898C147.42 44.322 148.158 43.602 148.698 42.738C149.238 41.838 149.508 40.92 149.508 39.984H151.236C151.236 43.656 150.534 46.518 149.13 48.57C147.762 50.622 145.44 51.648 142.164 51.648ZM166.691 36.798C166.691 33.882 167.249 31.47 168.365 29.562C169.517 27.654 170.975 26.232 172.739 25.296C174.539 24.36 176.411 23.892 178.355 23.892V30.804C176.699 30.804 175.133 31.002 173.657 31.398C172.217 31.794 171.047 32.442 170.147 33.342C169.247 34.242 168.797 35.394 168.797 36.798H166.691ZM161.669 51V24H168.797V51H161.669ZM182.022 51V24H189.15V51H182.022ZM185.586 19.626C184.506 19.626 183.552 19.23 182.724 18.438C181.896 17.61 181.482 16.638 181.482 15.522C181.482 14.406 181.896 13.452 182.724 12.66C183.552 11.832 184.506 11.418 185.586 11.418C186.702 11.418 187.656 11.832 188.448 12.66C189.276 13.452 189.69 14.406 189.69 15.522C189.69 16.638 189.276 17.61 188.448 18.438C187.656 19.23 186.702 19.626 185.586 19.626ZM197.883 51V21.3C197.883 18.42 198.621 16.188 200.097 14.604C201.573 12.984 203.823 12.174 206.847 12.174C207.891 12.174 208.989 12.354 210.141 12.714C211.329 13.074 212.409 13.506 213.381 14.01L210.735 19.14C210.159 18.852 209.637 18.636 209.169 18.492C208.701 18.348 208.269 18.276 207.873 18.276C206.901 18.276 206.181 18.618 205.713 19.302C205.245 19.95 205.011 21.012 205.011 22.488V51H197.883ZM193.401 29.724V24H211.653V29.724H193.401ZM231.517 51L231.301 45.546V37.338C231.301 35.718 231.121 34.332 230.761 33.18C230.437 32.028 229.897 31.146 229.141 30.534C228.421 29.886 227.431 29.562 226.171 29.562C225.019 29.562 223.975 29.814 223.039 30.318C222.103 30.822 221.311 31.596 220.663 32.64L214.399 30.48C214.903 29.328 215.641 28.212 216.613 27.132C217.585 26.016 218.845 25.116 220.393 24.432C221.977 23.712 223.903 23.352 226.171 23.352C228.907 23.352 231.175 23.874 232.975 24.918C234.811 25.962 236.161 27.438 237.025 29.346C237.925 31.218 238.357 33.45 238.321 36.042L238.159 51H231.517ZM223.957 51.648C220.717 51.648 218.197 50.928 216.397 49.488C214.633 48.048 213.751 46.014 213.751 43.386C213.751 40.506 214.705 38.346 216.613 36.906C218.557 35.43 221.275 34.692 224.767 34.692H231.625V39.984H227.251C224.911 39.984 223.291 40.272 222.391 40.848C221.491 41.388 221.041 42.162 221.041 43.17C221.041 43.962 221.401 44.592 222.121 45.06C222.841 45.492 223.849 45.708 225.145 45.708C226.333 45.708 227.377 45.438 228.277 44.898C229.213 44.322 229.951 43.602 230.491 42.738C231.031 41.838 231.301 40.92 231.301 39.984H233.029C233.029 43.656 232.327 46.518 230.923 48.57C229.555 50.622 227.233 51.648 223.957 51.648ZM243.894 51V24H251.022V51H243.894ZM247.458 19.626C246.378 19.626 245.424 19.23 244.596 18.438C243.768 17.61 243.354 16.638 243.354 15.522C243.354 14.406 243.768 13.452 244.596 12.66C245.424 11.832 246.378 11.418 247.458 11.418C248.574 11.418 249.528 11.832 250.32 12.66C251.148 13.452 251.562 14.406 251.562 15.522C251.562 16.638 251.148 17.61 250.32 18.438C249.528 19.23 248.574 19.626 247.458 19.626ZM270.408 51V13.2H282.504C286.356 13.2 289.758 14.01 292.71 15.63C295.698 17.25 298.02 19.482 299.676 22.326C301.368 25.134 302.214 28.392 302.214 32.1C302.214 35.772 301.368 39.03 299.676 41.874C298.02 44.718 295.698 46.95 292.71 48.57C289.758 50.19 286.356 51 282.504 51H270.408ZM277.806 44.088H282.504C284.232 44.088 285.834 43.782 287.31 43.17C288.786 42.558 290.064 41.712 291.144 40.632C292.26 39.552 293.124 38.292 293.736 36.852C294.348 35.376 294.654 33.792 294.654 32.1C294.654 30.408 294.348 28.842 293.736 27.402C293.124 25.926 292.26 24.648 291.144 23.568C290.064 22.488 288.786 21.642 287.31 21.03C285.834 20.418 284.232 20.112 282.504 20.112H277.806V44.088ZM319.343 51.648C316.607 51.648 314.159 51.054 311.999 49.866C309.875 48.642 308.201 46.968 306.977 44.844C305.789 42.72 305.195 40.272 305.195 37.5C305.195 34.728 305.789 32.28 306.977 30.156C308.165 28.032 309.821 26.376 311.945 25.188C314.069 23.964 316.499 23.352 319.235 23.352C322.007 23.352 324.455 23.964 326.579 25.188C328.703 26.376 330.359 28.032 331.547 30.156C332.735 32.28 333.329 34.728 333.329 37.5C333.329 40.272 332.735 42.72 331.547 44.844C330.359 46.968 328.703 48.642 326.579 49.866C324.491 51.054 322.079 51.648 319.343 51.648ZM319.343 45.06C320.675 45.06 321.845 44.736 322.853 44.088C323.861 43.44 324.635 42.558 325.175 41.442C325.751 40.29 326.039 38.976 326.039 37.5C326.039 36.024 325.751 34.728 325.175 33.612C324.599 32.46 323.789 31.56 322.745 30.912C321.737 30.264 320.567 29.94 319.235 29.94C317.939 29.94 316.769 30.264 315.725 30.912C314.717 31.56 313.925 32.46 313.349 33.612C312.773 34.728 312.485 36.024 312.485 37.5C312.485 38.976 312.773 40.29 313.349 41.442C313.925 42.558 314.735 43.44 315.779 44.088C316.823 44.736 318.011 45.06 319.343 45.06ZM350.504 51.648C347.696 51.648 345.194 51.054 342.998 49.866C340.802 48.642 339.092 46.968 337.868 44.844C336.644 42.684 336.032 40.236 336.032 37.5C336.032 34.728 336.644 32.28 337.868 30.156C339.092 28.032 340.784 26.376 342.944 25.188C345.104 23.964 347.588 23.352 350.396 23.352C353.096 23.352 355.562 24.018 357.794 25.35C360.026 26.682 361.646 28.608 362.654 31.128L355.958 33.504C355.454 32.46 354.662 31.632 353.582 31.02C352.538 30.372 351.368 30.048 350.072 30.048C348.74 30.048 347.57 30.372 346.562 31.02C345.554 31.632 344.762 32.496 344.186 33.612C343.61 34.728 343.322 36.024 343.322 37.5C343.322 38.976 343.61 40.272 344.186 41.388C344.762 42.468 345.572 43.332 346.616 43.98C347.66 44.628 348.848 44.952 350.18 44.952C351.476 44.952 352.646 44.61 353.69 43.926C354.77 43.242 355.562 42.342 356.066 41.226L362.816 43.602C361.772 46.158 360.134 48.138 357.902 49.542C355.706 50.946 353.24 51.648 350.504 51.648ZM376.526 51.648C374.798 51.648 373.178 51.396 371.666 50.892C370.154 50.352 368.822 49.596 367.67 48.624C366.518 47.616 365.618 46.392 364.97 44.952L371.072 42.144C371.612 43.008 372.35 43.764 373.286 44.412C374.222 45.024 375.302 45.33 376.526 45.33C377.714 45.33 378.632 45.168 379.28 44.844C379.928 44.484 380.252 43.98 380.252 43.332C380.252 42.684 379.982 42.216 379.442 41.928C378.938 41.604 378.236 41.334 377.336 41.118L374.852 40.47C372.26 39.786 370.208 38.706 368.696 37.23C367.22 35.718 366.482 33.99 366.482 32.046C366.482 29.274 367.364 27.132 369.128 25.62C370.928 24.108 373.466 23.352 376.742 23.352C378.434 23.352 380 23.604 381.44 24.108C382.916 24.612 384.176 25.314 385.22 26.214C386.264 27.114 386.984 28.158 387.38 29.346L381.494 32.046C381.242 31.326 380.63 30.75 379.658 30.318C378.686 29.85 377.714 29.616 376.742 29.616C375.77 29.616 375.014 29.832 374.474 30.264C373.97 30.66 373.718 31.218 373.718 31.938C373.718 32.406 373.97 32.802 374.474 33.126C374.978 33.414 375.698 33.666 376.634 33.882L380.144 34.746C381.908 35.178 383.312 35.88 384.356 36.852C385.436 37.788 386.21 38.85 386.678 40.038C387.182 41.19 387.434 42.324 387.434 43.44C387.434 45.06 386.948 46.5 385.976 47.76C385.04 48.984 383.744 49.938 382.088 50.622C380.468 51.306 378.614 51.648 376.526 51.648Z" fill="black"/>
</g>
<defs>
<clipPath id="clip0_15461_774">
<rect width="394" height="60" fill="white"/>
</clipPath>
</defs>
</svg>
