<svg width="101" height="88" viewBox="0 0 101 88" xmlns="http://www.w3.org/2000/svg" xmlns:xlink="http://www.w3.org/1999/xlink">
    <g id="Group">
        <path id="Path" fill="#3131f5" stroke="none" d="M 89.5 32.300003 C 80.699997 32.300003 81.100006 40 70 40 L 70 40 C 59.800003 40 59.699997 32.400002 49.900002 32.400002 C 43.800003 32.400002 38.800003 38 38.800003 44.099998 C 38.800003 50.199997 43.900002 55.800003 50.5 55.800003 C 59.300003 55.800003 58.900002 48.099998 70 48.099998 L 70 48.099998 C 80.199997 48.099998 80.300003 55.800003 90.100006 55.800003 C 96.199997 55.800003 101.199997 50.199997 101.199997 44.099998 C 101.199997 38 96.100006 32.300003 89.5 32.300003 Z"/>
    </g>
    <g id="g1">
        <path id="path1" fill="#3131f5" stroke="none" d="M 23.300003 44 C 23.300003 50.461731 18.061729 55.699997 11.599998 55.699997 C 5.138268 55.699997 -0.099998 50.461731 -0.099998 44 C -0.099998 37.538269 5.138268 32.300003 11.599998 32.300003 C 18.061729 32.300003 23.300003 37.538269 23.300003 44 Z"/>
    </g>
    <g id="g2">
        <path id="path2" fill="#3131f5" stroke="none" d="M 27.599998 24.400002 C 36.300003 24.400002 36.699997 17.100006 49.900002 17.100006 C 63.199997 17.100006 64.300003 24.400002 72.199997 24.400002 C 78.699997 24.400002 83.899994 19.199997 83.899994 12.699997 C 83.899994 6.199997 78.600006 1 72.199997 1 C 63.5 1 63.099998 8.300003 49.900002 8.300003 C 36.5 8.300003 35.5 1 27.599998 1 C 21.099998 1 15.900002 6.199997 15.900002 12.699997 C 15.900002 19.199997 21.099998 24.400002 27.599998 24.400002 Z"/>
    </g>
    <g id="g3">
        <path id="path3" fill="#3131f5" stroke="none" d="M 72.199997 63.5 C 63.5 63.5 63.099998 70.800003 49.900002 70.800003 C 36.599998 70.800003 35.5 63.5 27.599998 63.5 C 21.099998 63.5 15.900002 68.699997 15.900002 75.199997 C 15.900002 81.699997 21.099998 86.900002 27.599998 86.900002 C 36.300003 86.900002 36.699997 79.599998 49.900002 79.599998 C 63.199997 79.599998 64.300003 86.900002 72.199997 86.900002 C 78.699997 86.900002 83.899994 81.699997 83.899994 75.199997 C 83.899994 68.699997 78.600006 63.5 72.199997 63.5 Z"/>
    </g>
</svg>
