<svg width="261" height="60" viewBox="0 0 261 60" fill="none" xmlns="http://www.w3.org/2000/svg">
<path d="M7.96824 38.3268C3.65098 38.3438 0.131832 34.7904 0.114562 30.3963C0.0972924 26.0025 3.58857 22.4649 7.8631 22.4481C12.1376 22.4313 15.6568 25.9847 15.6739 30.3352C15.691 34.6857 12.2855 38.3099 7.96824 38.3268ZM48.1739 1.05919C42.4034 1.08187 42.1665 6.04238 33.3608 6.07699C24.4697 6.11193 23.7237 1.15529 18.466 1.17596C14.1487 1.19293 10.7004 4.77389 10.7175 9.12431C10.7346 13.4747 14.2537 17.0283 18.5282 17.0115C24.3416 16.9886 24.5785 12.0282 33.384 11.9936C42.275 11.9586 43.0213 16.9152 48.2791 16.8946C52.5963 16.8776 56.0447 13.2967 56.0276 8.94623C56.0105 4.5958 52.4914 1.04222 48.1739 1.05919ZM48.3406 43.4759C42.5274 43.4988 42.2903 48.4591 33.4848 48.4938C24.5938 48.5287 23.8475 43.5722 18.59 43.5928C14.2727 43.6098 10.8243 47.1906 10.8414 51.5411C10.8585 55.8916 14.3777 59.4452 18.6522 59.4284C24.4655 59.4056 24.7026 54.4449 33.5081 54.4103C42.3991 54.3754 43.1451 59.3321 48.4029 59.3115C52.7203 59.2945 56.1685 55.7135 56.1514 51.363C56.1343 47.0125 52.6581 43.4589 48.3406 43.4759ZM59.7987 22.244C53.9426 22.267 54.1769 27.4866 46.8245 27.5155C40.0281 27.5422 39.9222 22.3655 33.3822 22.3912C29.3214 22.4071 26.0021 26.2052 26.0183 30.3381C26.0346 34.4709 29.4263 38.2425 33.8291 38.2252C39.6852 38.2022 39.4511 32.9826 46.8033 32.9537C53.5997 32.9269 53.7056 38.1037 60.2456 38.078C64.3063 38.0621 67.6257 34.264 67.6094 30.1311C67.6359 25.9979 64.2441 22.2265 59.7987 22.244Z" fill="#04AFFF"/>
<path d="M117.066 44.1621C114.667 48.2767 110.346 51.3469 105.417 51.3663C96.7506 51.4003 91.2995 44.7382 91.2684 36.8335C91.2373 28.9288 97.563 22.4918 105.337 22.4612C110.265 22.4418 114.609 25.2067 117.04 29.3023C117.207 29.6409 117.109 30.0484 116.779 30.2533C116.449 30.4581 111.268 33.5319 111.268 33.5319C110.938 33.7366 110.54 33.6025 110.341 33.2981C109.243 31.6739 107.452 30.6292 105.369 30.6374C102.061 30.6504 99.3923 33.4089 99.4057 36.8015C99.419 40.194 102.109 42.9316 105.417 42.9186C107.468 42.9105 109.283 41.8517 110.368 40.219C110.565 39.8788 110.995 39.7754 111.326 39.9438C111.326 39.9438 116.532 43.0106 116.863 43.179C117.162 43.3815 117.262 43.8219 117.066 44.1621ZM189.046 10.8007C186.697 10.8099 184.786 12.7852 184.796 15.1939C184.805 17.6027 186.732 19.5629 189.08 19.5536C191.429 19.5444 193.339 17.5691 193.33 15.1604C193.32 12.7516 191.394 10.7915 189.046 10.8007ZM193.03 22.9986C193.028 22.5915 192.697 22.2875 192.333 22.2889C192.333 22.2889 186.213 22.3129 185.849 22.3144C185.486 22.3158 185.156 22.6564 185.157 23.0296L185.263 50.0008C185.265 50.4079 185.597 50.712 185.961 50.7106L192.444 50.6851C192.841 50.6835 193.138 50.343 193.136 49.9699L193.03 22.9986ZM255.997 10.5375C253.648 10.5468 251.736 12.522 251.746 14.9308C251.755 17.3395 253.683 19.2997 256.031 19.2905C258.379 19.2813 260.289 17.306 260.279 14.8972C260.27 12.4885 258.345 10.5283 255.997 10.5375ZM259.98 22.7355C259.978 22.3284 259.647 22.0243 259.283 22.0258C259.283 22.0258 253.164 22.0498 252.8 22.0512C252.435 22.0527 252.106 22.3932 252.107 22.7664L252.213 49.7377C252.215 50.1448 252.546 50.4489 252.912 50.4474L259.395 50.4219C259.791 50.4204 260.087 50.0798 260.086 49.7067L259.98 22.7355ZM129.006 10.2903C129.004 9.88317 128.672 9.57913 128.308 9.58056C128.308 9.58056 122.189 9.60461 121.825 9.60604C121.461 9.60747 121.132 9.94803 121.133 10.3212L121.29 50.2522C121.292 50.6593 121.624 50.9634 121.988 50.962L128.471 50.9365C128.868 50.935 129.164 50.5944 129.163 50.2213L129.006 10.2903ZM217.174 22.1913C217.174 22.1913 211.948 22.2118 211.253 22.2145C210.393 22.2179 210.391 21.6751 210.389 21.2001C210.373 16.9594 210.408 17.4342 216.957 17.4085C217.321 17.407 217.617 17.1005 217.616 16.7273C217.616 16.7273 217.592 10.5867 217.59 10.2135C217.589 9.84034 217.587 9.26359 216.76 9.26684C212.096 9.28517 202.532 8.40674 202.518 21.4685C202.518 21.5025 202.521 22.2489 201.958 22.2511C200.668 22.2561 197.79 22.2674 197.79 22.2674C197.394 22.269 197.097 22.6094 197.099 22.9826L197.125 29.6661C197.126 30.0732 197.459 30.3772 197.822 30.3758L201.891 30.3598C202.453 30.3576 202.552 30.3572 202.555 31.0018L202.629 49.9325C202.631 50.3396 202.963 50.6437 203.327 50.6423L209.81 50.6168C210.207 50.6153 210.504 50.2747 210.502 49.9016L210.428 30.9369C210.425 30.3263 210.624 30.3255 211.153 30.3234L217.206 30.2996C217.603 30.298 217.899 29.9576 217.898 29.5844C217.898 29.5844 217.873 23.3081 217.872 22.901C217.87 22.4939 217.571 22.1897 217.174 22.1913ZM160.217 23.1276L160.323 50.0988C160.324 50.5059 159.994 50.8126 159.631 50.8141L153.18 50.8394C152.453 50.8423 152.482 49.8922 152.482 49.8922C152.48 49.4851 152.149 49.249 151.819 49.4537C151.819 49.4537 149.576 51.159 146.368 51.1716C138.032 51.2043 132.384 45.0518 132.351 36.5363C132.32 28.6316 138.547 22.2967 146.056 22.2672C149.231 22.2547 151.751 23.7715 151.751 23.7715C152.116 23.9737 152.479 23.7348 152.477 23.3616C152.477 23.3616 152.44 22.4118 153.168 22.4089L159.519 22.384C159.916 22.4163 160.215 22.7205 160.217 23.1276ZM152.43 36.5931C152.416 33.1328 149.693 30.3614 146.352 30.3745C143.011 30.3877 140.31 33.1803 140.323 36.6406C140.337 40.1012 143.06 42.8726 146.401 42.8594C149.742 42.8463 152.443 40.0536 152.43 36.5931ZM172.366 50.73L165.816 50.7558C165.419 50.7573 165.12 50.4193 165.119 50.046L165.013 23.0748C165.011 22.6677 165.308 22.3612 165.705 22.3596L172.32 22.3336C173.048 22.3308 173.018 23.2808 173.018 23.2808C173.02 23.6201 173.285 23.8226 173.583 23.7536C173.748 23.719 174.144 23.48 174.441 23.377C175.465 22.932 177.282 22.382 180.623 22.3689C181.45 22.3656 181.452 22.9423 181.454 23.3155C181.455 23.6887 181.479 29.7954 181.479 29.7954C181.481 30.1686 181.184 30.4751 180.82 30.4765C174.965 30.4995 173.182 31.1851 172.963 34.2733L173.058 50.0828C173.059 50.4219 172.73 50.7286 172.366 50.73ZM247.211 22.7857L247.317 49.7569C247.319 50.164 246.989 50.4707 246.626 50.4721L240.176 50.4975C239.448 50.5003 239.479 49.5503 239.479 49.5503C239.477 49.1432 239.144 48.9071 238.814 49.1118C238.814 49.1118 236.572 50.817 233.363 50.8296C225.027 50.8624 219.38 44.7099 219.346 36.1944C219.315 28.2897 225.542 21.9548 233.051 21.9253C236.226 21.9128 238.746 23.4296 238.746 23.4296C239.111 23.6317 239.474 23.3928 239.473 23.0196C239.473 23.0196 239.436 22.0698 240.163 22.067L246.514 22.042C246.911 22.0744 247.209 22.3786 247.211 22.7857ZM239.426 36.2511C239.413 32.7908 236.688 30.0195 233.347 30.0326C230.007 30.0457 227.305 32.8384 227.319 36.2987C227.332 39.7593 230.056 42.5306 233.396 42.5175C236.737 42.5044 239.44 39.7117 239.426 36.2511Z" fill="#0A0D15"/>
</svg>
