<svg width="2177" height="391" viewBox="0 0 2177 391" fill="none" xmlns="http://www.w3.org/2000/svg">
<path d="M53.0206 248.792C23.8884 248.792 0 224.847 0 195.646C0 166.153 23.8884 142.208 53.0206 142.208C82.1528 142.208 106.041 166.153 106.041 195.354C106.041 224.555 82.4441 248.792 53.0206 248.792ZM328.32 0C288.7 0 286.952 33.289 226.94 33.289C166.345 33.289 161.392 0 125.56 0C96.1362 0 72.5392 23.9447 72.5392 53.1456C72.5392 82.3465 96.4276 106.291 125.56 106.291C165.18 106.291 166.927 73.0022 226.94 73.0022C287.535 73.0022 292.487 106.291 328.32 106.291C357.743 106.291 381.34 82.3465 381.34 53.1456C381.34 23.9447 357.743 0 328.32 0ZM328.32 284.709C288.7 284.709 286.952 317.998 226.94 317.998C166.345 317.998 161.392 284.709 125.56 284.709C96.1362 284.709 72.5392 308.653 72.5392 337.854C72.5392 367.055 96.4276 391 125.56 391C165.18 391 166.927 357.711 226.94 357.711C287.535 357.711 292.487 391 328.32 391C357.743 391 381.34 367.055 381.34 337.854C381.34 308.653 357.743 284.709 328.32 284.709ZM406.977 142.208C367.066 142.208 368.522 177.249 318.415 177.249C272.095 177.249 271.512 142.208 226.94 142.208C199.264 142.208 176.541 167.613 176.541 195.354C176.541 223.095 199.556 248.5 229.562 248.5C269.473 248.5 268.016 213.459 318.124 213.459C364.444 213.459 365.026 248.208 409.599 248.208C437.274 248.208 459.997 222.803 459.997 195.062C460.289 167.905 436.983 142.208 406.977 142.208Z" fill="#195AFF"/>
<path d="M801.323 323.894C778.147 362.377 736.556 391 689.25 391C606.068 391 554 328.346 554 254.243C554 180.14 614.958 120.031 689.567 120.031C736.873 120.031 778.464 146.11 801.641 184.593C803.228 187.773 802.276 191.589 799.101 193.498C795.926 195.406 746.08 224.029 746.08 224.029C742.906 225.938 739.096 224.666 737.191 221.803C726.714 206.537 709.569 196.678 689.567 196.678C657.819 196.678 632.102 222.439 632.102 254.243C632.102 286.047 657.501 311.49 689.25 311.49C708.934 311.49 726.396 301.631 736.873 286.365C738.778 283.185 742.906 282.231 746.08 283.821C746.08 283.821 795.926 312.762 799.101 314.353C801.958 316.261 803.228 320.395 801.323 323.894ZM1493.13 13.4876C1470.59 13.4876 1452.17 31.9338 1452.17 54.5146C1452.17 77.0954 1470.59 95.5417 1493.13 95.5417C1515.67 95.5417 1534.09 77.0954 1534.09 54.5146C1534.09 31.9338 1515.99 13.4876 1493.13 13.4876ZM1531.23 128.3C1531.23 124.483 1528.05 121.621 1524.56 121.621C1524.56 121.621 1465.83 121.621 1462.33 121.621C1458.84 121.621 1455.67 124.801 1455.67 128.3V381.141C1455.67 384.957 1458.84 387.82 1462.33 387.82H1524.56C1528.37 387.82 1531.23 384.639 1531.23 381.141V128.3ZM2136.04 13.4876C2113.5 13.4876 2095.09 31.9338 2095.09 54.5146C2095.09 77.0954 2113.5 95.5417 2136.04 95.5417C2158.59 95.5417 2177 77.0954 2177 54.5146C2177 31.9338 2158.59 13.4876 2136.04 13.4876ZM2173.83 128.3C2173.83 124.483 2170.65 121.621 2167.16 121.621C2167.16 121.621 2108.42 121.621 2104.93 121.621C2101.44 121.621 2098.26 124.801 2098.26 128.3V381.141C2098.26 384.957 2101.44 387.82 2104.93 387.82H2167.16C2170.97 387.82 2173.83 384.639 2173.83 381.141V128.3ZM916.889 6.80875C916.889 2.99228 913.714 0.129928 910.222 0.129928C910.222 0.129928 851.487 0.129928 847.994 0.129928C844.502 0.129928 841.327 2.99228 841.327 6.80875V381.141C841.327 384.957 844.502 387.82 847.994 387.82H910.222C914.032 387.82 916.889 384.639 916.889 381.141V6.80875ZM1763 121.303C1763 121.303 1712.83 121.303 1706.17 121.303C1697.91 121.303 1697.91 116.214 1697.91 111.762C1697.91 72.0068 1698.23 76.4593 1761.09 76.4593C1764.58 76.4593 1767.44 73.597 1767.44 70.0985C1767.44 70.0985 1767.44 12.5335 1767.44 9.03502C1767.44 5.53659 1767.44 0.129928 1759.5 0.129928C1714.74 0.129928 1622.98 -8.45712 1622.35 113.988C1622.35 114.306 1622.35 121.303 1616.95 121.303C1604.57 121.303 1576.95 121.303 1576.95 121.303C1573.14 121.303 1570.28 124.483 1570.28 127.982V190.635C1570.28 194.452 1573.45 197.314 1576.95 197.314H1616C1621.4 197.314 1622.35 197.314 1622.35 203.357V381.141C1622.35 384.957 1625.52 387.82 1629.02 387.82H1691.24C1695.05 387.82 1697.91 384.639 1697.91 381.141V203.357C1697.91 197.632 1699.82 197.632 1704.9 197.632H1763C1766.81 197.632 1769.66 194.452 1769.66 190.953C1769.66 190.953 1769.66 132.116 1769.66 128.3C1769.66 124.483 1766.49 121.303 1763 121.303ZM1216.28 128.3V381.141C1216.28 384.957 1213.11 387.82 1209.61 387.82H1147.7C1140.72 387.82 1141.04 378.915 1141.04 378.915C1141.04 375.098 1137.86 372.872 1134.69 374.78C1134.69 374.78 1113.1 390.682 1082.3 390.682C1002.29 390.682 948.32 332.799 948.32 252.971C948.32 178.868 1008.33 119.713 1080.4 119.713C1110.87 119.713 1135 134.024 1135 134.024C1138.5 135.933 1141.99 133.706 1141.99 130.208C1141.99 130.208 1141.67 121.303 1148.66 121.303H1209.61C1213.11 121.303 1216.28 124.483 1216.28 128.3ZM1141.04 254.243C1141.04 221.803 1115 195.724 1082.94 195.724C1050.87 195.724 1024.84 221.803 1024.84 254.243C1024.84 286.683 1050.87 312.762 1082.94 312.762C1115 312.762 1141.04 286.365 1141.04 254.243ZM1331.53 387.502H1268.67C1264.86 387.502 1262 384.321 1262 380.823V127.664C1262 123.847 1264.86 120.985 1268.67 120.985H1332.16C1339.15 120.985 1338.83 129.89 1338.83 129.89C1338.83 133.07 1341.37 134.979 1344.23 134.342C1345.82 134.024 1349.63 131.798 1352.48 130.844C1362.33 126.71 1379.79 121.621 1411.85 121.621C1419.79 121.621 1419.79 127.028 1419.79 130.526C1419.79 134.024 1419.79 191.271 1419.79 191.271C1419.79 194.77 1416.93 197.632 1413.44 197.632C1357.25 197.632 1340.1 203.993 1337.88 232.935L1338.2 381.141C1338.51 384.321 1335.34 387.502 1331.53 387.502ZM2051.27 128.3V381.141C2051.27 384.957 2048.1 387.82 2044.61 387.82H1982.7C1975.71 387.82 1976.03 378.915 1976.03 378.915C1976.03 375.098 1972.86 372.872 1969.68 374.78C1969.68 374.78 1948.09 390.682 1917.29 390.682C1837.29 390.682 1783.31 332.799 1783.31 252.971C1783.31 178.868 1843.32 119.713 1915.39 119.713C1945.87 119.713 1970 134.024 1970 134.024C1973.49 135.933 1976.98 133.706 1976.98 130.208C1976.98 130.208 1976.66 121.303 1983.65 121.303H2044.61C2048.1 121.303 2051.27 124.483 2051.27 128.3ZM1976.03 254.243C1976.03 221.803 1950 195.724 1917.93 195.724C1885.86 195.724 1859.83 221.803 1859.83 254.243C1859.83 286.683 1885.86 312.762 1917.93 312.762C1950 312.762 1976.03 286.365 1976.03 254.243Z" fill="#232331"/>
</svg>
