<svg width="261" height="60" viewBox="0 0 261 60" fill="none" xmlns="http://www.w3.org/2000/svg">
<path d="M7.96824 37.8444C3.65098 37.8614 0.131832 34.308 0.114562 29.9139C0.0972924 25.5201 3.58857 21.9825 7.8631 21.9657C12.1376 21.9489 15.6568 25.5023 15.6739 29.8528C15.691 34.2032 12.2855 37.8275 7.96824 37.8444ZM48.1739 0.576772C42.4034 0.599452 42.1665 5.55995 33.3608 5.59456C24.4697 5.62951 23.7237 0.67287 18.466 0.693535C14.1487 0.710504 10.7004 4.29147 10.7175 8.64189C10.7346 12.9923 14.2537 16.5459 18.5282 16.5291C24.3416 16.5062 24.5785 11.5457 33.384 11.5111C42.275 11.4762 43.0213 16.4328 48.2791 16.4121C52.5963 16.3952 56.0447 12.8142 56.0276 8.4638C56.0105 4.11338 52.4914 0.559803 48.1739 0.576772ZM48.3406 42.9935C42.5274 43.0163 42.2903 47.9767 33.4848 48.0113C24.5938 48.0463 23.8475 43.0898 18.59 43.1104C14.2727 43.1274 10.8243 46.7082 10.8414 51.0587C10.8585 55.4091 14.3777 58.9628 18.6522 58.946C24.4655 58.9231 24.7026 53.9625 33.5081 53.9279C42.3991 53.893 43.1451 58.8497 48.4029 58.829C52.7203 58.8121 56.1685 55.231 56.1514 50.8806C56.1343 46.5301 52.6581 42.9765 48.3406 42.9935ZM59.7987 21.7616C53.9426 21.7846 54.1769 27.0042 46.8245 27.0331C40.0281 27.0598 39.9222 21.883 33.3822 21.9087C29.3214 21.9247 26.0021 25.7227 26.0183 29.8557C26.0346 33.9884 29.4263 37.7601 33.8291 37.7428C39.6852 37.7198 39.4511 32.5001 46.8033 32.4712C53.5997 32.4445 53.7056 37.6213 60.2456 37.5956C64.3063 37.5796 67.6257 33.7816 67.6094 29.6486C67.6359 25.5155 64.2441 21.7441 59.7987 21.7616Z" fill="#04AFFF"/>
<path d="M117.066 43.6797C114.667 47.7942 110.346 50.8645 105.417 50.8839C96.7506 50.9179 91.2995 44.2558 91.2684 36.351C91.2373 28.4463 97.563 22.0093 105.337 21.9788C110.265 21.9594 114.609 24.7243 117.04 28.8199C117.207 29.1585 117.109 29.566 116.779 29.7708C116.449 29.9757 111.268 33.0495 111.268 33.0495C110.938 33.2542 110.54 33.1201 110.341 32.8157C109.243 31.1915 107.452 30.1468 105.369 30.155C102.061 30.168 99.3923 32.9265 99.4057 36.319C99.419 39.7116 102.109 42.4491 105.417 42.4361C107.468 42.4281 109.283 41.3693 110.368 39.7366C110.565 39.3964 110.995 39.293 111.326 39.4614C111.326 39.4614 116.532 42.5282 116.863 42.6966C117.162 42.8991 117.262 43.3395 117.066 43.6797ZM189.046 10.3183C186.697 10.3275 184.786 12.3028 184.796 14.7115C184.805 17.1203 186.732 19.0804 189.08 19.0712C191.429 19.062 193.339 17.0867 193.33 14.678C193.32 12.2692 191.394 10.309 189.046 10.3183ZM193.03 22.5162C193.028 22.1091 192.697 21.805 192.333 21.8065C192.333 21.8065 186.213 21.8305 185.849 21.832C185.486 21.8334 185.156 22.1739 185.157 22.5471L185.263 49.5184C185.265 49.9255 185.597 50.2296 185.961 50.2281L192.444 50.2027C192.841 50.2011 193.138 49.8606 193.136 49.4874L193.03 22.5162ZM255.997 10.0551C253.648 10.0644 251.736 12.0396 251.746 14.4484C251.755 16.8571 253.683 18.8173 256.031 18.8081C258.379 18.7988 260.289 16.8236 260.279 14.4148C260.27 12.0061 258.345 10.0459 255.997 10.0551ZM259.98 22.2531C259.978 21.8459 259.647 21.5419 259.283 21.5433C259.283 21.5433 253.164 21.5674 252.8 21.5688C252.435 21.5702 252.106 21.9108 252.107 22.284L252.213 49.2552C252.215 49.6623 252.546 49.9664 252.912 49.965L259.395 49.9395C259.791 49.938 260.087 49.5974 260.086 49.2243L259.98 22.2531ZM129.006 9.80786C129.004 9.40074 128.672 9.09671 128.308 9.09814C128.308 9.09814 122.189 9.12219 121.825 9.12362C121.461 9.12505 121.132 9.46561 121.133 9.8388L121.29 49.7698C121.292 50.1769 121.624 50.481 121.988 50.4796L128.471 50.4541C128.868 50.4525 129.164 50.112 129.163 49.7389L129.006 9.80786ZM217.174 21.7088C217.174 21.7088 211.948 21.7294 211.253 21.7321C210.393 21.7355 210.391 21.1927 210.389 20.7177C210.373 16.477 210.408 16.9518 216.957 16.926C217.321 16.9246 217.617 16.6181 217.616 16.2449C217.616 16.2449 217.592 10.1043 217.59 9.7311C217.589 9.35791 217.587 8.78117 216.76 8.78442C212.096 8.80275 202.532 7.92432 202.518 20.9861C202.518 21.0201 202.521 21.7664 201.958 21.7686C200.668 21.7737 197.79 21.785 197.79 21.785C197.394 21.7866 197.097 22.127 197.099 22.5002L197.125 29.1836C197.126 29.5908 197.459 29.8948 197.822 29.8934L201.891 29.8774C202.453 29.8752 202.552 29.8748 202.555 30.5194L202.629 49.4501C202.631 49.8572 202.963 50.1613 203.327 50.1599L209.81 50.1344C210.207 50.1328 210.504 49.7923 210.502 49.4192L210.428 30.4545C210.425 29.8438 210.624 29.8431 211.153 29.841L217.206 29.8172C217.603 29.8156 217.899 29.4752 217.898 29.102C217.898 29.102 217.873 22.8257 217.872 22.4186C217.87 22.0115 217.571 21.7073 217.174 21.7088ZM160.217 22.6452L160.323 49.6164C160.324 50.0235 159.994 50.3302 159.631 50.3316L153.18 50.357C152.453 50.3598 152.482 49.4098 152.482 49.4098C152.48 49.0027 152.149 48.7666 151.819 48.9713C151.819 48.9713 149.576 50.6765 146.368 50.6892C138.032 50.7219 132.384 44.5694 132.351 36.0539C132.32 28.1492 138.547 21.8143 146.056 21.7848C149.231 21.7723 151.751 23.2891 151.751 23.2891C152.116 23.4912 152.479 23.2523 152.477 22.8791C152.477 22.8791 152.44 21.9294 153.168 21.9265L159.519 21.9015C159.916 21.9339 160.215 22.2381 160.217 22.6452ZM152.43 36.1106C152.416 32.6503 149.693 29.879 146.352 29.8921C143.011 29.9052 140.31 32.6979 140.323 36.1582C140.337 39.6188 143.06 42.3901 146.401 42.377C149.742 42.3639 152.443 39.5712 152.43 36.1106ZM172.366 50.2476L165.816 50.2733C165.419 50.2749 165.12 49.9369 165.119 49.5636L165.013 22.5924C165.011 22.1853 165.308 21.8788 165.705 21.8772L172.32 21.8512C173.048 21.8484 173.018 22.7984 173.018 22.7984C173.02 23.1377 173.285 23.3402 173.583 23.2712C173.748 23.2366 174.144 22.9975 174.441 22.8946C175.465 22.4495 177.282 21.8996 180.623 21.8864C181.45 21.8832 181.452 22.4599 181.454 22.8331C181.455 23.2063 181.479 29.313 181.479 29.313C181.481 29.6862 181.184 29.9927 180.82 29.9941C174.965 30.0171 173.182 30.7027 172.963 33.7909L173.058 49.6003C173.059 49.9395 172.73 50.2462 172.366 50.2476ZM247.211 22.3032L247.317 49.2745C247.319 49.6816 246.989 49.9883 246.626 49.9897L240.176 50.0151C239.448 50.0179 239.479 49.0679 239.479 49.0679C239.477 48.6608 239.144 48.4246 238.814 48.6294C238.814 48.6294 236.572 50.3346 233.363 50.3472C225.027 50.38 219.38 44.2275 219.346 35.7119C219.315 27.8072 225.542 21.4724 233.051 21.4429C236.226 21.4304 238.746 22.9472 238.746 22.9472C239.111 23.1493 239.474 22.9104 239.473 22.5372C239.473 22.5372 239.436 21.5874 240.163 21.5846L246.514 21.5596C246.911 21.592 247.209 21.8961 247.211 22.3032ZM239.426 35.7687C239.413 32.3084 236.688 29.5371 233.347 29.5502C230.007 29.5633 227.305 32.356 227.319 35.8163C227.332 39.2768 230.056 42.0482 233.396 42.0351C236.737 42.022 239.44 39.2293 239.426 35.7687Z" fill="#F9FBFF"/>
</svg>
