<svg width="315" height="71" viewBox="0 0 315 71" fill="none" xmlns="http://www.w3.org/2000/svg">
<path d="M9.64789 45.3098C4.42058 45.3304 0.159621 41.019 0.138711 35.6876C0.117801 30.3565 4.34501 26.0643 9.52059 26.0439C14.6961 26.0235 18.9571 30.3349 18.9778 35.6134C18.9985 40.8919 14.8752 45.2892 9.64789 45.3098ZM58.3286 0.0925353C51.3417 0.120054 51.0549 6.13869 40.393 6.18068C29.6278 6.22308 28.7245 0.209133 22.3585 0.234206C17.1312 0.254794 12.9559 4.59961 12.9766 9.87803C12.9973 15.1565 17.2582 19.468 22.4338 19.4476C29.4727 19.4199 29.7595 13.4013 40.4211 13.3593C51.1863 13.3169 52.0899 19.3308 58.4559 19.3058C63.6832 19.2852 67.8585 14.9404 67.8378 9.66196C67.8171 4.38354 63.5561 0.0719465 58.3286 0.0925353ZM58.5305 51.5572C51.4919 51.5849 51.2048 57.6034 40.5432 57.6454C29.778 57.6878 28.8744 51.674 22.5086 51.6991C17.2812 51.7197 13.106 56.0643 13.1267 61.3428C13.1474 66.6212 17.4084 70.9329 22.5839 70.9125C29.6226 70.8848 29.9097 64.866 40.5713 64.824C51.3365 64.7816 52.2398 70.7957 58.6059 70.7707C63.8334 70.7501 68.0084 66.4052 67.9877 61.1267C67.967 55.8482 63.758 51.5366 58.5305 51.5572ZM72.4038 25.7963C65.3133 25.8242 65.597 32.1572 56.6948 32.1923C48.4658 32.2247 48.3375 25.9437 40.419 25.9749C35.5022 25.9942 31.4831 30.6024 31.5028 35.617C31.5225 40.6313 35.6292 45.2075 40.96 45.1865C48.0505 45.1585 47.7671 38.8255 56.669 38.7904C64.8981 38.758 65.0263 45.0391 72.9449 45.0079C77.8616 44.9885 81.8807 40.3803 81.861 35.3658C81.893 30.351 77.7863 25.7751 72.4038 25.7963Z" fill="url(#paint0_linear_2817_14668)"/>
<path d="M141.414 52.1602C138.516 57.1305 133.296 60.8393 127.343 60.8627C116.874 60.9039 110.289 52.8561 110.251 43.3073C110.214 33.7585 117.855 25.9827 127.245 25.9458C133.199 25.9224 138.447 29.2623 141.383 34.2097C141.584 34.6188 141.467 35.111 141.068 35.3585C140.669 35.6059 134.41 39.319 134.41 39.319C134.012 39.5664 133.532 39.4043 133.291 39.0366C131.964 37.0746 129.801 35.8126 127.284 35.8225C123.288 35.8382 120.065 39.1704 120.081 43.2686C120.097 47.3668 123.346 50.6737 127.342 50.658C129.82 50.6483 132.012 49.3693 133.323 47.3969C133.561 46.986 134.08 46.8611 134.481 47.0645C134.481 47.0645 140.769 50.7692 141.169 50.9726C141.53 51.2172 141.652 51.7493 141.414 52.1602ZM228.365 11.86C225.528 11.8712 223.22 14.2573 223.231 17.167C223.243 20.0768 225.57 22.4446 228.406 22.4335C231.244 22.4223 233.552 20.0362 233.54 17.1265C233.529 14.2167 231.202 11.8489 228.365 11.86ZM233.178 26.595C233.176 26.1032 232.775 25.7359 232.335 25.7376C232.335 25.7376 224.943 25.7667 224.504 25.7684C224.064 25.7701 223.666 26.1815 223.668 26.6323L223.796 59.2132C223.798 59.705 224.199 60.0724 224.638 60.0706L232.47 60.0398C232.95 60.038 233.308 59.6266 233.306 59.1759L233.178 26.595ZM309.241 11.5422C306.404 11.5533 304.094 13.9394 304.106 16.8491C304.117 19.7589 306.445 22.1267 309.282 22.1156C312.119 22.1044 314.426 19.7184 314.414 16.8086C314.403 13.8989 312.078 11.531 309.241 11.5422ZM314.052 26.2771C314.05 25.7853 313.65 25.418 313.211 25.4198C313.211 25.4198 305.819 25.4488 305.38 25.4505C304.938 25.4523 304.54 25.8637 304.542 26.3145L304.67 58.8954C304.672 59.3871 305.073 59.7545 305.515 59.7528L313.346 59.722C313.824 59.7201 314.182 59.3087 314.18 58.858L314.052 26.2771ZM155.838 11.2435C155.836 10.7517 155.435 10.3844 154.995 10.3861C154.995 10.3861 147.603 10.4152 147.163 10.4169C146.724 10.4186 146.326 10.83 146.328 11.2808L146.517 59.517C146.519 60.0087 146.92 60.3761 147.36 60.3744L155.191 60.3436C155.671 60.3417 156.029 59.9303 156.027 59.4796L155.838 11.2435ZM262.344 25.6197C262.344 25.6197 256.03 25.6445 255.191 25.6478C254.152 25.6519 254.15 24.9962 254.148 24.4224C254.128 19.2996 254.17 19.8732 262.081 19.8421C262.521 19.8404 262.879 19.4701 262.877 19.0193C262.877 19.0193 262.848 11.6015 262.846 11.1507C262.845 10.6999 262.842 10.0032 261.843 10.0072C256.209 10.0293 244.657 8.96817 244.639 24.7467C244.639 24.7877 244.642 25.6893 243.963 25.6919C242.405 25.6981 238.928 25.7117 238.928 25.7117C238.449 25.7136 238.091 26.1248 238.093 26.5756L238.124 34.6492C238.126 35.1409 238.528 35.5082 238.967 35.5065L243.882 35.4872C244.561 35.4845 244.681 35.484 244.684 36.2627L244.774 59.1308C244.776 59.6226 245.177 59.9899 245.616 59.9882L253.448 59.9574C253.928 59.9555 254.286 59.5441 254.284 59.0934L254.194 36.1843C254.191 35.4467 254.431 35.4457 255.07 35.4432L262.382 35.4145C262.862 35.4126 263.22 35.0013 263.218 34.5505C263.218 34.5505 263.188 26.9688 263.186 26.477C263.184 25.9852 262.823 25.6178 262.344 25.6197ZM193.54 26.7508L193.668 59.3316C193.67 59.8234 193.271 60.1939 192.832 60.1956L185.04 60.2263C184.161 60.2297 184.197 59.0821 184.197 59.0821C184.195 58.5903 183.794 58.305 183.395 58.5524C183.395 58.5524 180.686 60.6123 176.81 60.6275C166.741 60.6671 159.919 53.2349 159.878 42.9483C159.841 33.3995 167.363 25.7471 176.433 25.7115C180.269 25.6964 183.313 27.5286 183.313 27.5286C183.754 27.7728 184.192 27.4842 184.191 27.0334C184.191 27.0334 184.146 25.8861 185.025 25.8826L192.697 25.8525C193.177 25.8915 193.538 26.259 193.54 26.7508ZM184.133 43.0169C184.117 38.8369 180.827 35.4891 176.792 35.505C172.756 35.5208 169.492 38.8943 169.509 43.0744C169.525 47.2547 172.815 50.6024 176.851 50.5866C180.886 50.5707 184.15 47.1972 184.133 43.0169ZM208.216 60.0941L200.304 60.1252C199.824 60.1271 199.463 59.7188 199.461 59.2678L199.333 26.687C199.331 26.1952 199.69 25.825 200.169 25.8231L208.161 25.7917C209.04 25.7882 209.004 26.9359 209.004 26.9359C209.006 27.3457 209.326 27.5903 209.686 27.5069C209.885 27.4652 210.364 27.1764 210.723 27.0521C211.96 26.5144 214.155 25.8501 218.19 25.8342C219.189 25.8303 219.192 26.527 219.194 26.9778C219.196 27.4286 219.225 34.8054 219.225 34.8054C219.226 35.2562 218.868 35.6265 218.429 35.6282C211.356 35.656 209.202 36.4841 208.937 40.2147L209.052 59.3122C209.053 59.7219 208.655 60.0924 208.216 60.0941ZM298.628 26.3377L298.756 58.9186C298.758 59.4104 298.36 59.7809 297.921 59.7826L290.13 59.8132C289.251 59.8167 289.287 58.669 289.287 58.669C289.285 58.1772 288.883 57.892 288.485 58.1393C288.485 58.1393 285.776 60.1992 281.9 60.2145C271.83 60.2541 265.008 52.8219 264.968 42.5352C264.93 32.9865 272.452 25.3341 281.523 25.2984C285.359 25.2833 288.403 27.1156 288.403 27.1156C288.843 27.3598 289.282 27.0712 289.28 26.6204C289.28 26.6204 289.236 25.473 290.114 25.4696L297.786 25.4394C298.265 25.4785 298.626 25.8459 298.628 26.3377ZM289.224 42.6038C289.208 38.4238 285.917 35.0761 281.881 35.0919C277.845 35.1078 274.582 38.4813 274.598 42.6613C274.615 46.8416 277.904 50.1894 281.94 50.1735C285.976 50.1577 289.24 46.7841 289.224 42.6038Z" fill="white"/>
<defs>
<linearGradient id="paint0_linear_2817_14668" x1="2.9228e-06" y1="0.000123021" x2="82.4425" y2="70.9237" gradientUnits="userSpaceOnUse">
<stop stop-color="#7CDEE9"/>
<stop offset="1" stop-color="#53BAF4"/>
</linearGradient>
</defs>
</svg>
