<svg width="80" height="70" viewBox="0 0 80 70" fill="none" xmlns="http://www.w3.org/2000/svg">
<path d="M9.41257 44.2459C4.31276 44.266 0.155728 40.0558 0.135327 34.8496C0.114928 29.6437 4.23904 25.4522 9.28838 25.4323C14.3377 25.4124 18.4947 29.6226 18.5149 34.7772C18.5351 39.9317 14.5124 44.2258 9.41257 44.2459ZM56.906 0.0901155C50.0895 0.116988 49.8096 5.99434 39.4078 6.03534C28.9052 6.07675 28.0239 0.203976 21.8131 0.22846C16.7133 0.248565 12.6399 4.49139 12.6601 9.64591C12.6803 14.8004 16.8373 19.0108 21.8867 18.9909C28.7538 18.9638 29.0337 13.0865 39.4352 13.0455C49.9379 13.0041 50.8194 18.8768 57.0302 18.8523C62.1299 18.8322 66.2034 14.5894 66.1832 9.4349C66.163 4.28039 62.006 0.07001 56.906 0.0901155ZM57.1029 50.3467C50.236 50.3738 49.9559 56.251 39.5543 56.292C29.0517 56.3334 28.1701 50.4608 21.9596 50.4852C16.8598 50.5053 12.7863 54.748 12.8065 59.9025C12.8267 65.0571 16.9838 69.2676 22.0331 69.2477C28.9001 69.2206 29.1802 63.3431 39.5818 63.3021C50.0844 63.2607 50.9657 69.1336 57.1764 69.1091C62.2765 69.089 66.3496 64.8461 66.3294 59.6915C66.3092 54.537 62.2029 50.3266 57.1029 50.3467ZM70.6379 25.1905C63.7203 25.2177 63.997 31.4021 55.312 31.4363C47.2837 31.468 47.1586 25.3344 39.4331 25.3649C34.6363 25.3838 30.7153 29.8838 30.7345 34.7807C30.7536 39.6772 34.7602 44.146 39.961 44.1255C46.8786 44.0982 46.6021 37.9139 55.2869 37.8796C63.3152 37.848 63.4403 43.9816 71.1657 43.9511C75.9626 43.9322 79.8836 39.4322 79.8644 34.5353C79.8956 29.6383 75.8891 25.1698 70.6379 25.1905Z" fill="url(#paint0_linear_2817_14665)"/>
<defs>
<linearGradient id="paint0_linear_2817_14665" x1="2.85174e-06" y1="-0.0001274" x2="80.4959" y2="69.1839" gradientUnits="userSpaceOnUse">
<stop stop-color="#7CDEE9"/>
<stop offset="1" stop-color="#53BAF4"/>
</linearGradient>
</defs>
</svg>
